M48
;DRILL file {KiCad 4.0.2-stable} date 01.06.2016 19:19:45
;FORMAT={-:-/ absolute / inch / decimal}
FMAT,2
INCH,TZ
T1C0.039
T2C0.040
T3C0.043
T4C0.047
T5C0.047
T6C0.050
T7C0.125
%
G90
G05
M72
T1
X6.05Y-3.4
X6.05Y-3.8
X6.2Y-3.2
X6.2Y-3.6
X6.35Y-3.
X6.35Y-3.4
X6.35Y-3.5999
X6.35Y-3.8
X6.5Y-2.35
X6.55Y-2.75
X6.65Y-2.75
X6.75Y-2.75
X6.9Y-2.35
X6.95Y-3.5999
X6.95Y-3.8
X7.Y-2.75
X7.1Y-2.35
X7.1Y-2.75
X7.2Y-2.75
X7.35Y-3.8
X7.45Y-2.5
X7.45Y-2.75
X7.5Y-2.35
X7.55Y-2.75
X7.65Y-2.75
X7.65Y-3.6
X7.65Y-3.8
X7.85Y-2.35
X7.85Y-2.5
X7.9Y-2.75
X8.Y-2.75
X8.05Y-3.6
X8.05Y-3.8
X8.1Y-2.75
X8.25Y-2.35
T2
X6.59Y-2.1
X6.69Y-2.1
X6.79Y-2.1
X6.89Y-2.1
X6.95Y-4.
X6.99Y-2.1
X7.05Y-4.
X7.09Y-2.1
X7.15Y-4.
X7.19Y-2.1
X7.25Y-4.
X7.29Y-2.1
X7.35Y-4.
X7.39Y-2.1
X7.45Y-4.
X7.49Y-2.1
X7.55Y-4.
X7.65Y-2.1
X7.65Y-4.
X7.75Y-2.1
X7.85Y-2.1
X7.85Y-4.
X7.95Y-2.1
X7.95Y-4.
X8.05Y-2.1
X8.05Y-4.
X8.15Y-2.1
X8.15Y-4.
X8.25Y-2.1
X8.25Y-4.
X8.35Y-2.1
X8.35Y-2.9
X8.35Y-3.
X8.35Y-3.1
X8.35Y-4.
X8.45Y-2.9
X8.45Y-3.
X8.45Y-3.1
T3
X6.Y-2.9
X6.Y-3.
X6.Y-3.1
X6.Y-3.2
T4
X6.65Y-3.1016
X6.65Y-3.2984
X7.1Y-3.1016
X7.1Y-3.2984
X7.55Y-3.1016
X7.55Y-3.2984
X8.Y-3.1016
X8.Y-3.2984
T5
X6.1Y-2.3
X6.1Y-2.4969
X6.2969Y-2.3984
X6.2969Y-2.5953
T6
X6.75Y-3.5999
X6.75Y-3.8
X7.35Y-3.5999
T7
X6.4Y-4.
X6.45Y-2.1
X8.45Y-2.7
X8.45Y-3.8
T0
M30
