G04 #@! TF.FileFunction,Legend,Top*
%FSLAX46Y46*%
G04 Gerber Fmt 4.6, Leading zero omitted, Abs format (unit mm)*
G04 Created by KiCad (PCBNEW 4.0.2-stable) date 01.06.2016 19:19:13*
%MOMM*%
G01*
G04 APERTURE LIST*
%ADD10C,0.100000*%
%ADD11C,0.150000*%
G04 APERTURE END LIST*
D10*
D11*
X184150000Y-91437460D02*
X185166000Y-91437460D01*
X179324000Y-91437460D02*
X178054000Y-91437460D01*
X179578000Y-90167460D02*
X179578000Y-92707460D01*
X179832000Y-90167460D02*
X179832000Y-92707460D01*
X180086000Y-90167460D02*
X180086000Y-92707460D01*
X179324000Y-90167460D02*
X179324000Y-92707460D01*
X180340000Y-90167460D02*
X179070000Y-92707460D01*
X179070000Y-90167460D02*
X180340000Y-92707460D01*
X180340000Y-90167460D02*
X180340000Y-92707460D01*
X179705000Y-90167460D02*
X179705000Y-92707460D01*
X179070000Y-92707460D02*
X179070000Y-90167460D01*
X179070000Y-90167460D02*
X184150000Y-90167460D01*
X184150000Y-90167460D02*
X184150000Y-92707460D01*
X184150000Y-92707460D02*
X179070000Y-92707460D01*
X168910000Y-96520000D02*
X169926000Y-96520000D01*
X164084000Y-96520000D02*
X162814000Y-96520000D01*
X164338000Y-97790000D02*
X164338000Y-95250000D01*
X164592000Y-97790000D02*
X164592000Y-95250000D01*
X164846000Y-97790000D02*
X164846000Y-95250000D01*
X164084000Y-97790000D02*
X164084000Y-95250000D01*
X165100000Y-97790000D02*
X163830000Y-95250000D01*
X163830000Y-97790000D02*
X165100000Y-95250000D01*
X165100000Y-97790000D02*
X165100000Y-95250000D01*
X164465000Y-97790000D02*
X164465000Y-95250000D01*
X163830000Y-95250000D02*
X163830000Y-97790000D01*
X163830000Y-97790000D02*
X168910000Y-97790000D01*
X168910000Y-97790000D02*
X168910000Y-95250000D01*
X168910000Y-95250000D02*
X163830000Y-95250000D01*
X151140000Y-62170000D02*
X151140000Y-67170000D01*
X163240720Y-67169040D02*
X163240720Y-62170320D01*
X148239480Y-67169040D02*
X148239480Y-62170320D01*
X163240720Y-67169040D02*
X148239480Y-67169040D01*
X149740620Y-62170320D02*
X149740620Y-62670700D01*
X149740620Y-67169040D02*
X149740620Y-66671200D01*
X152740360Y-62619900D02*
X153339800Y-62619900D01*
X152740360Y-66620400D02*
X152740360Y-62619900D01*
X157139640Y-66620400D02*
X152740360Y-66620400D01*
X157139640Y-62619900D02*
X157139640Y-66620400D01*
X157139640Y-62619900D02*
X156540200Y-62619900D01*
X155338780Y-66620400D02*
X155338780Y-65220860D01*
X154541220Y-66620400D02*
X154541220Y-65220860D01*
X161739580Y-65820300D02*
G75*
G03X161739580Y-63818780I-1000760J1000760D01*
G01*
X161739580Y-63821320D02*
G75*
G03X159740600Y-63818780I-1000760J-998220D01*
G01*
X150337520Y-65817760D02*
G75*
G03X150337520Y-63420000I-1198880J1198880D01*
G01*
X149138640Y-63420000D02*
G75*
G03X149141180Y-65820300I1201420J-1198880D01*
G01*
X150340060Y-63420000D02*
G75*
G03X149141180Y-63420000I-599440J-599440D01*
G01*
X149138640Y-65820300D02*
G75*
G03X150340060Y-65822840I601980J599440D01*
G01*
X149537420Y-63219340D02*
G75*
G03X149539960Y-66020960I1402080J-1399540D01*
G01*
X161287460Y-63521600D02*
G75*
G03X159440880Y-64270900I-548640J-1297940D01*
G01*
X151140000Y-62170000D02*
X151140000Y-55670000D01*
X148240000Y-57170000D02*
X148240000Y-55670000D01*
X148240000Y-55670000D02*
X163240000Y-55670000D01*
X163240000Y-55670000D02*
X163240000Y-57170000D01*
X161287460Y-58521600D02*
G75*
G03X159440880Y-59270900I-548640J-1297940D01*
G01*
X149537420Y-58219340D02*
G75*
G03X149539960Y-61020960I1402080J-1399540D01*
G01*
X149138640Y-60820300D02*
G75*
G03X150340060Y-60822840I601980J599440D01*
G01*
X150340060Y-58420000D02*
G75*
G03X149141180Y-58420000I-599440J-599440D01*
G01*
X149138640Y-58420000D02*
G75*
G03X149141180Y-60820300I1201420J-1198880D01*
G01*
X150337520Y-60817760D02*
G75*
G03X150337520Y-58420000I-1198880J1198880D01*
G01*
X161739580Y-58821320D02*
G75*
G03X159740600Y-58818780I-1000760J-998220D01*
G01*
X161739580Y-60820300D02*
G75*
G03X161739580Y-58818780I-1000760J1000760D01*
G01*
X154541220Y-61620400D02*
X154541220Y-60220860D01*
X155338780Y-61620400D02*
X155338780Y-60220860D01*
X157139640Y-57619900D02*
X156540200Y-57619900D01*
X157139640Y-57619900D02*
X157139640Y-61620400D01*
X157139640Y-61620400D02*
X152740360Y-61620400D01*
X152740360Y-61620400D02*
X152740360Y-57619900D01*
X152740360Y-57619900D02*
X153339800Y-57619900D01*
X149740620Y-62169040D02*
X149740620Y-61671200D01*
X149740620Y-57170320D02*
X149740620Y-57670700D01*
X163240720Y-62169040D02*
X148239480Y-62169040D01*
X148239480Y-62169040D02*
X148239480Y-57170320D01*
X148239480Y-57170320D02*
X163240720Y-57170320D01*
X163240720Y-62169040D02*
X163240720Y-57170320D01*
X167386000Y-66802000D02*
X167386000Y-67945000D01*
X170434000Y-66802000D02*
X170434000Y-67945000D01*
X174244000Y-67945000D02*
X174244000Y-71628000D01*
X174244000Y-71628000D02*
X163576000Y-71628000D01*
X163576000Y-71628000D02*
X163576000Y-67945000D01*
X174244000Y-66802000D02*
X174244000Y-67945000D01*
X174244000Y-67945000D02*
X163576000Y-67945000D01*
X163576000Y-67945000D02*
X163576000Y-66802000D01*
X168910000Y-66802000D02*
X163576000Y-66802000D01*
X168910000Y-66802000D02*
X174244000Y-66802000D01*
X178816000Y-66802000D02*
X178816000Y-67945000D01*
X181864000Y-66802000D02*
X181864000Y-67945000D01*
X185674000Y-67945000D02*
X185674000Y-71628000D01*
X185674000Y-71628000D02*
X175006000Y-71628000D01*
X175006000Y-71628000D02*
X175006000Y-67945000D01*
X185674000Y-66802000D02*
X185674000Y-67945000D01*
X185674000Y-67945000D02*
X175006000Y-67945000D01*
X175006000Y-67945000D02*
X175006000Y-66802000D01*
X180340000Y-66802000D02*
X175006000Y-66802000D01*
X180340000Y-66802000D02*
X185674000Y-66802000D01*
X190246000Y-66802000D02*
X190246000Y-67945000D01*
X193294000Y-66802000D02*
X193294000Y-67945000D01*
X197104000Y-67945000D02*
X197104000Y-71628000D01*
X197104000Y-71628000D02*
X186436000Y-71628000D01*
X186436000Y-71628000D02*
X186436000Y-67945000D01*
X197104000Y-66802000D02*
X197104000Y-67945000D01*
X197104000Y-67945000D02*
X186436000Y-67945000D01*
X186436000Y-67945000D02*
X186436000Y-66802000D01*
X191770000Y-66802000D02*
X186436000Y-66802000D01*
X191770000Y-66802000D02*
X197104000Y-66802000D01*
X201676000Y-66802000D02*
X201676000Y-67945000D01*
X204724000Y-66802000D02*
X204724000Y-67945000D01*
X208534000Y-67945000D02*
X208534000Y-71628000D01*
X208534000Y-71628000D02*
X197866000Y-71628000D01*
X197866000Y-71628000D02*
X197866000Y-67945000D01*
X208534000Y-66802000D02*
X208534000Y-67945000D01*
X208534000Y-67945000D02*
X197866000Y-67945000D01*
X197866000Y-67945000D02*
X197866000Y-66802000D01*
X203200000Y-66802000D02*
X197866000Y-66802000D01*
X203200000Y-66802000D02*
X208534000Y-66802000D01*
X163908740Y-86281260D02*
X173911260Y-86281260D01*
X163908740Y-76278740D02*
X173911260Y-76278740D01*
X163908740Y-74279760D02*
X163908740Y-88280240D01*
X163908740Y-88280240D02*
X173911260Y-88280240D01*
X173911260Y-88280240D02*
X173911260Y-74279760D01*
X173911260Y-74279760D02*
X163908740Y-74279760D01*
X175338740Y-86281260D02*
X185341260Y-86281260D01*
X175338740Y-76278740D02*
X185341260Y-76278740D01*
X175338740Y-74279760D02*
X175338740Y-88280240D01*
X175338740Y-88280240D02*
X185341260Y-88280240D01*
X185341260Y-88280240D02*
X185341260Y-74279760D01*
X185341260Y-74279760D02*
X175338740Y-74279760D01*
X186768740Y-86281260D02*
X196771260Y-86281260D01*
X186768740Y-76278740D02*
X196771260Y-76278740D01*
X186768740Y-74279760D02*
X186768740Y-88280240D01*
X186768740Y-88280240D02*
X196771260Y-88280240D01*
X196771260Y-88280240D02*
X196771260Y-74279760D01*
X196771260Y-74279760D02*
X186768740Y-74279760D01*
X198198740Y-86281260D02*
X208201260Y-86281260D01*
X198198740Y-76278740D02*
X208201260Y-76278740D01*
X198198740Y-74279760D02*
X198198740Y-88280240D01*
X198198740Y-88280240D02*
X208201260Y-88280240D01*
X208201260Y-88280240D02*
X208201260Y-74279760D01*
X208201260Y-74279760D02*
X198198740Y-74279760D01*
X168910000Y-91437460D02*
X169926000Y-91437460D01*
X164084000Y-91437460D02*
X162814000Y-91437460D01*
X164338000Y-90167460D02*
X164338000Y-92707460D01*
X164592000Y-90167460D02*
X164592000Y-92707460D01*
X164846000Y-90167460D02*
X164846000Y-92707460D01*
X164084000Y-90167460D02*
X164084000Y-92707460D01*
X165100000Y-90167460D02*
X163830000Y-92707460D01*
X163830000Y-90167460D02*
X165100000Y-92707460D01*
X165100000Y-90167460D02*
X165100000Y-92707460D01*
X164465000Y-90167460D02*
X164465000Y-92707460D01*
X163830000Y-92707460D02*
X163830000Y-90167460D01*
X163830000Y-90167460D02*
X168910000Y-90167460D01*
X168910000Y-90167460D02*
X168910000Y-92707460D01*
X168910000Y-92707460D02*
X163830000Y-92707460D01*
X149301200Y-72169020D02*
X149301200Y-82770980D01*
X149699980Y-82770980D02*
X149699980Y-72169020D01*
X155000960Y-82770980D02*
X155000960Y-72169020D01*
X155498800Y-72169020D02*
X155498800Y-82770980D01*
X155000960Y-74973180D02*
X155498800Y-74973180D01*
X155000960Y-77470000D02*
X155498800Y-77470000D01*
X155498800Y-82567780D02*
X155000960Y-82567780D01*
X155000960Y-72369680D02*
X155498800Y-72369680D01*
X155498800Y-79966820D02*
X155000960Y-79966820D01*
X155498800Y-72171560D02*
X149301200Y-72171560D01*
X149301200Y-82765900D02*
X155498800Y-82765900D01*
X154940000Y-88900000D02*
X154940000Y-93980000D01*
X154940000Y-93980000D02*
X152400000Y-93980000D01*
X152400000Y-93980000D02*
X152400000Y-88900000D01*
X152400000Y-88900000D02*
X154940000Y-88900000D01*
X153670000Y-88900000D02*
X153670000Y-87630000D01*
X153670000Y-93980000D02*
X153670000Y-95250000D01*
X179070000Y-95250000D02*
X184150000Y-95250000D01*
X184150000Y-95250000D02*
X184150000Y-97790000D01*
X184150000Y-97790000D02*
X179070000Y-97790000D01*
X179070000Y-97790000D02*
X179070000Y-95250000D01*
X179070000Y-96520000D02*
X177800000Y-96520000D01*
X184150000Y-96520000D02*
X185420000Y-96520000D01*
X167640000Y-58420000D02*
X172720000Y-58420000D01*
X172720000Y-58420000D02*
X172720000Y-60960000D01*
X172720000Y-60960000D02*
X167640000Y-60960000D01*
X167640000Y-60960000D02*
X167640000Y-58420000D01*
X167640000Y-59690000D02*
X166370000Y-59690000D01*
X172720000Y-59690000D02*
X173990000Y-59690000D01*
X182880000Y-58420000D02*
X187960000Y-58420000D01*
X187960000Y-58420000D02*
X187960000Y-60960000D01*
X187960000Y-60960000D02*
X182880000Y-60960000D01*
X182880000Y-60960000D02*
X182880000Y-58420000D01*
X182880000Y-59690000D02*
X181610000Y-59690000D01*
X187960000Y-59690000D02*
X189230000Y-59690000D01*
X201930000Y-58420000D02*
X207010000Y-58420000D01*
X207010000Y-58420000D02*
X207010000Y-60960000D01*
X207010000Y-60960000D02*
X201930000Y-60960000D01*
X201930000Y-60960000D02*
X201930000Y-58420000D01*
X201930000Y-59690000D02*
X200660000Y-59690000D01*
X207010000Y-59690000D02*
X208280000Y-59690000D01*
X196850000Y-64770000D02*
X191770000Y-64770000D01*
X191770000Y-64770000D02*
X191770000Y-62230000D01*
X191770000Y-62230000D02*
X196850000Y-62230000D01*
X196850000Y-62230000D02*
X196850000Y-64770000D01*
X196850000Y-63500000D02*
X198120000Y-63500000D01*
X191770000Y-63500000D02*
X190500000Y-63500000D01*
X158750000Y-83820000D02*
X158750000Y-88900000D01*
X158750000Y-88900000D02*
X156210000Y-88900000D01*
X156210000Y-88900000D02*
X156210000Y-83820000D01*
X156210000Y-83820000D02*
X158750000Y-83820000D01*
X157480000Y-83820000D02*
X157480000Y-82550000D01*
X157480000Y-88900000D02*
X157480000Y-90170000D01*
X201930000Y-97790000D02*
X196850000Y-97790000D01*
X196850000Y-97790000D02*
X196850000Y-95250000D01*
X196850000Y-95250000D02*
X201930000Y-95250000D01*
X201930000Y-95250000D02*
X201930000Y-97790000D01*
X201930000Y-96520000D02*
X203200000Y-96520000D01*
X196850000Y-96520000D02*
X195580000Y-96520000D01*
X162560000Y-78740000D02*
X162560000Y-83820000D01*
X162560000Y-83820000D02*
X160020000Y-83820000D01*
X160020000Y-83820000D02*
X160020000Y-78740000D01*
X160020000Y-78740000D02*
X162560000Y-78740000D01*
X161290000Y-78740000D02*
X161290000Y-77470000D01*
X161290000Y-83820000D02*
X161290000Y-85090000D01*
X201930000Y-92710000D02*
X196850000Y-92710000D01*
X196850000Y-92710000D02*
X196850000Y-90170000D01*
X196850000Y-90170000D02*
X201930000Y-90170000D01*
X201930000Y-90170000D02*
X201930000Y-92710000D01*
X201930000Y-91440000D02*
X203200000Y-91440000D01*
X196850000Y-91440000D02*
X195580000Y-91440000D01*
X178331905Y-94432381D02*
X178331905Y-93432381D01*
X178570000Y-93432381D01*
X178712858Y-93480000D01*
X178808096Y-93575238D01*
X178855715Y-93670476D01*
X178903334Y-93860952D01*
X178903334Y-94003810D01*
X178855715Y-94194286D01*
X178808096Y-94289524D01*
X178712858Y-94384762D01*
X178570000Y-94432381D01*
X178331905Y-94432381D01*
X179236667Y-93432381D02*
X179855715Y-93432381D01*
X179522381Y-93813333D01*
X179665239Y-93813333D01*
X179760477Y-93860952D01*
X179808096Y-93908571D01*
X179855715Y-94003810D01*
X179855715Y-94241905D01*
X179808096Y-94337143D01*
X179760477Y-94384762D01*
X179665239Y-94432381D01*
X179379524Y-94432381D01*
X179284286Y-94384762D01*
X179236667Y-94337143D01*
X163091905Y-99512381D02*
X163091905Y-98512381D01*
X163330000Y-98512381D01*
X163472858Y-98560000D01*
X163568096Y-98655238D01*
X163615715Y-98750476D01*
X163663334Y-98940952D01*
X163663334Y-99083810D01*
X163615715Y-99274286D01*
X163568096Y-99369524D01*
X163472858Y-99464762D01*
X163330000Y-99512381D01*
X163091905Y-99512381D01*
X164615715Y-99512381D02*
X164044286Y-99512381D01*
X164330000Y-99512381D02*
X164330000Y-98512381D01*
X164234762Y-98655238D01*
X164139524Y-98750476D01*
X164044286Y-98798095D01*
X155392381Y-54078095D02*
X154392381Y-54078095D01*
X154392381Y-53697142D01*
X154440000Y-53601904D01*
X154487619Y-53554285D01*
X154582857Y-53506666D01*
X154725714Y-53506666D01*
X154820952Y-53554285D01*
X154868571Y-53601904D01*
X154916190Y-53697142D01*
X154916190Y-54078095D01*
X155392381Y-52554285D02*
X155392381Y-53125714D01*
X155392381Y-52840000D02*
X154392381Y-52840000D01*
X154535238Y-52935238D01*
X154630476Y-53030476D01*
X154678095Y-53125714D01*
X168814762Y-65317619D02*
X168719524Y-65270000D01*
X168624286Y-65174762D01*
X168481429Y-65031905D01*
X168386190Y-64984286D01*
X168290952Y-64984286D01*
X168338571Y-65222381D02*
X168243333Y-65174762D01*
X168148095Y-65079524D01*
X168100476Y-64889048D01*
X168100476Y-64555714D01*
X168148095Y-64365238D01*
X168243333Y-64270000D01*
X168338571Y-64222381D01*
X168529048Y-64222381D01*
X168624286Y-64270000D01*
X168719524Y-64365238D01*
X168767143Y-64555714D01*
X168767143Y-64889048D01*
X168719524Y-65079524D01*
X168624286Y-65174762D01*
X168529048Y-65222381D01*
X168338571Y-65222381D01*
X169719524Y-65222381D02*
X169148095Y-65222381D01*
X169433809Y-65222381D02*
X169433809Y-64222381D01*
X169338571Y-64365238D01*
X169243333Y-64460476D01*
X169148095Y-64508095D01*
X170021286Y-68984762D02*
X170164143Y-69032381D01*
X170402239Y-69032381D01*
X170497477Y-68984762D01*
X170545096Y-68937143D01*
X170592715Y-68841905D01*
X170592715Y-68746667D01*
X170545096Y-68651429D01*
X170497477Y-68603810D01*
X170402239Y-68556190D01*
X170211762Y-68508571D01*
X170116524Y-68460952D01*
X170068905Y-68413333D01*
X170021286Y-68318095D01*
X170021286Y-68222857D01*
X170068905Y-68127619D01*
X170116524Y-68080000D01*
X170211762Y-68032381D01*
X170449858Y-68032381D01*
X170592715Y-68080000D01*
X167505095Y-69032381D02*
X167505095Y-68032381D01*
X167743190Y-68032381D01*
X167886048Y-68080000D01*
X167981286Y-68175238D01*
X168028905Y-68270476D01*
X168076524Y-68460952D01*
X168076524Y-68603810D01*
X168028905Y-68794286D01*
X167981286Y-68889524D01*
X167886048Y-68984762D01*
X167743190Y-69032381D01*
X167505095Y-69032381D01*
X165361905Y-68080000D02*
X165266667Y-68032381D01*
X165123810Y-68032381D01*
X164980952Y-68080000D01*
X164885714Y-68175238D01*
X164838095Y-68270476D01*
X164790476Y-68460952D01*
X164790476Y-68603810D01*
X164838095Y-68794286D01*
X164885714Y-68889524D01*
X164980952Y-68984762D01*
X165123810Y-69032381D01*
X165219048Y-69032381D01*
X165361905Y-68984762D01*
X165409524Y-68937143D01*
X165409524Y-68603810D01*
X165219048Y-68603810D01*
X180244762Y-65317619D02*
X180149524Y-65270000D01*
X180054286Y-65174762D01*
X179911429Y-65031905D01*
X179816190Y-64984286D01*
X179720952Y-64984286D01*
X179768571Y-65222381D02*
X179673333Y-65174762D01*
X179578095Y-65079524D01*
X179530476Y-64889048D01*
X179530476Y-64555714D01*
X179578095Y-64365238D01*
X179673333Y-64270000D01*
X179768571Y-64222381D01*
X179959048Y-64222381D01*
X180054286Y-64270000D01*
X180149524Y-64365238D01*
X180197143Y-64555714D01*
X180197143Y-64889048D01*
X180149524Y-65079524D01*
X180054286Y-65174762D01*
X179959048Y-65222381D01*
X179768571Y-65222381D01*
X180578095Y-64317619D02*
X180625714Y-64270000D01*
X180720952Y-64222381D01*
X180959048Y-64222381D01*
X181054286Y-64270000D01*
X181101905Y-64317619D01*
X181149524Y-64412857D01*
X181149524Y-64508095D01*
X181101905Y-64650952D01*
X180530476Y-65222381D01*
X181149524Y-65222381D01*
X181451286Y-68984762D02*
X181594143Y-69032381D01*
X181832239Y-69032381D01*
X181927477Y-68984762D01*
X181975096Y-68937143D01*
X182022715Y-68841905D01*
X182022715Y-68746667D01*
X181975096Y-68651429D01*
X181927477Y-68603810D01*
X181832239Y-68556190D01*
X181641762Y-68508571D01*
X181546524Y-68460952D01*
X181498905Y-68413333D01*
X181451286Y-68318095D01*
X181451286Y-68222857D01*
X181498905Y-68127619D01*
X181546524Y-68080000D01*
X181641762Y-68032381D01*
X181879858Y-68032381D01*
X182022715Y-68080000D01*
X178935095Y-69032381D02*
X178935095Y-68032381D01*
X179173190Y-68032381D01*
X179316048Y-68080000D01*
X179411286Y-68175238D01*
X179458905Y-68270476D01*
X179506524Y-68460952D01*
X179506524Y-68603810D01*
X179458905Y-68794286D01*
X179411286Y-68889524D01*
X179316048Y-68984762D01*
X179173190Y-69032381D01*
X178935095Y-69032381D01*
X176791905Y-68080000D02*
X176696667Y-68032381D01*
X176553810Y-68032381D01*
X176410952Y-68080000D01*
X176315714Y-68175238D01*
X176268095Y-68270476D01*
X176220476Y-68460952D01*
X176220476Y-68603810D01*
X176268095Y-68794286D01*
X176315714Y-68889524D01*
X176410952Y-68984762D01*
X176553810Y-69032381D01*
X176649048Y-69032381D01*
X176791905Y-68984762D01*
X176839524Y-68937143D01*
X176839524Y-68603810D01*
X176649048Y-68603810D01*
X191674762Y-65317619D02*
X191579524Y-65270000D01*
X191484286Y-65174762D01*
X191341429Y-65031905D01*
X191246190Y-64984286D01*
X191150952Y-64984286D01*
X191198571Y-65222381D02*
X191103333Y-65174762D01*
X191008095Y-65079524D01*
X190960476Y-64889048D01*
X190960476Y-64555714D01*
X191008095Y-64365238D01*
X191103333Y-64270000D01*
X191198571Y-64222381D01*
X191389048Y-64222381D01*
X191484286Y-64270000D01*
X191579524Y-64365238D01*
X191627143Y-64555714D01*
X191627143Y-64889048D01*
X191579524Y-65079524D01*
X191484286Y-65174762D01*
X191389048Y-65222381D01*
X191198571Y-65222381D01*
X191960476Y-64222381D02*
X192579524Y-64222381D01*
X192246190Y-64603333D01*
X192389048Y-64603333D01*
X192484286Y-64650952D01*
X192531905Y-64698571D01*
X192579524Y-64793810D01*
X192579524Y-65031905D01*
X192531905Y-65127143D01*
X192484286Y-65174762D01*
X192389048Y-65222381D01*
X192103333Y-65222381D01*
X192008095Y-65174762D01*
X191960476Y-65127143D01*
X192881286Y-68984762D02*
X193024143Y-69032381D01*
X193262239Y-69032381D01*
X193357477Y-68984762D01*
X193405096Y-68937143D01*
X193452715Y-68841905D01*
X193452715Y-68746667D01*
X193405096Y-68651429D01*
X193357477Y-68603810D01*
X193262239Y-68556190D01*
X193071762Y-68508571D01*
X192976524Y-68460952D01*
X192928905Y-68413333D01*
X192881286Y-68318095D01*
X192881286Y-68222857D01*
X192928905Y-68127619D01*
X192976524Y-68080000D01*
X193071762Y-68032381D01*
X193309858Y-68032381D01*
X193452715Y-68080000D01*
X190365095Y-69032381D02*
X190365095Y-68032381D01*
X190603190Y-68032381D01*
X190746048Y-68080000D01*
X190841286Y-68175238D01*
X190888905Y-68270476D01*
X190936524Y-68460952D01*
X190936524Y-68603810D01*
X190888905Y-68794286D01*
X190841286Y-68889524D01*
X190746048Y-68984762D01*
X190603190Y-69032381D01*
X190365095Y-69032381D01*
X188221905Y-68080000D02*
X188126667Y-68032381D01*
X187983810Y-68032381D01*
X187840952Y-68080000D01*
X187745714Y-68175238D01*
X187698095Y-68270476D01*
X187650476Y-68460952D01*
X187650476Y-68603810D01*
X187698095Y-68794286D01*
X187745714Y-68889524D01*
X187840952Y-68984762D01*
X187983810Y-69032381D01*
X188079048Y-69032381D01*
X188221905Y-68984762D01*
X188269524Y-68937143D01*
X188269524Y-68603810D01*
X188079048Y-68603810D01*
X203104762Y-65317619D02*
X203009524Y-65270000D01*
X202914286Y-65174762D01*
X202771429Y-65031905D01*
X202676190Y-64984286D01*
X202580952Y-64984286D01*
X202628571Y-65222381D02*
X202533333Y-65174762D01*
X202438095Y-65079524D01*
X202390476Y-64889048D01*
X202390476Y-64555714D01*
X202438095Y-64365238D01*
X202533333Y-64270000D01*
X202628571Y-64222381D01*
X202819048Y-64222381D01*
X202914286Y-64270000D01*
X203009524Y-64365238D01*
X203057143Y-64555714D01*
X203057143Y-64889048D01*
X203009524Y-65079524D01*
X202914286Y-65174762D01*
X202819048Y-65222381D01*
X202628571Y-65222381D01*
X203914286Y-64555714D02*
X203914286Y-65222381D01*
X203676190Y-64174762D02*
X203438095Y-64889048D01*
X204057143Y-64889048D01*
X204311286Y-68984762D02*
X204454143Y-69032381D01*
X204692239Y-69032381D01*
X204787477Y-68984762D01*
X204835096Y-68937143D01*
X204882715Y-68841905D01*
X204882715Y-68746667D01*
X204835096Y-68651429D01*
X204787477Y-68603810D01*
X204692239Y-68556190D01*
X204501762Y-68508571D01*
X204406524Y-68460952D01*
X204358905Y-68413333D01*
X204311286Y-68318095D01*
X204311286Y-68222857D01*
X204358905Y-68127619D01*
X204406524Y-68080000D01*
X204501762Y-68032381D01*
X204739858Y-68032381D01*
X204882715Y-68080000D01*
X201795095Y-69032381D02*
X201795095Y-68032381D01*
X202033190Y-68032381D01*
X202176048Y-68080000D01*
X202271286Y-68175238D01*
X202318905Y-68270476D01*
X202366524Y-68460952D01*
X202366524Y-68603810D01*
X202318905Y-68794286D01*
X202271286Y-68889524D01*
X202176048Y-68984762D01*
X202033190Y-69032381D01*
X201795095Y-69032381D01*
X199651905Y-68080000D02*
X199556667Y-68032381D01*
X199413810Y-68032381D01*
X199270952Y-68080000D01*
X199175714Y-68175238D01*
X199128095Y-68270476D01*
X199080476Y-68460952D01*
X199080476Y-68603810D01*
X199128095Y-68794286D01*
X199175714Y-68889524D01*
X199270952Y-68984762D01*
X199413810Y-69032381D01*
X199509048Y-69032381D01*
X199651905Y-68984762D01*
X199699524Y-68937143D01*
X199699524Y-68603810D01*
X199509048Y-68603810D01*
X173172381Y-77636666D02*
X172696190Y-77970000D01*
X173172381Y-78208095D02*
X172172381Y-78208095D01*
X172172381Y-77827142D01*
X172220000Y-77731904D01*
X172267619Y-77684285D01*
X172362857Y-77636666D01*
X172505714Y-77636666D01*
X172600952Y-77684285D01*
X172648571Y-77731904D01*
X172696190Y-77827142D01*
X172696190Y-78208095D01*
X172505714Y-76779523D02*
X173172381Y-76779523D01*
X172124762Y-77017619D02*
X172839048Y-77255714D01*
X172839048Y-76636666D01*
X184602381Y-77636666D02*
X184126190Y-77970000D01*
X184602381Y-78208095D02*
X183602381Y-78208095D01*
X183602381Y-77827142D01*
X183650000Y-77731904D01*
X183697619Y-77684285D01*
X183792857Y-77636666D01*
X183935714Y-77636666D01*
X184030952Y-77684285D01*
X184078571Y-77731904D01*
X184126190Y-77827142D01*
X184126190Y-78208095D01*
X183602381Y-76779523D02*
X183602381Y-76970000D01*
X183650000Y-77065238D01*
X183697619Y-77112857D01*
X183840476Y-77208095D01*
X184030952Y-77255714D01*
X184411905Y-77255714D01*
X184507143Y-77208095D01*
X184554762Y-77160476D01*
X184602381Y-77065238D01*
X184602381Y-76874761D01*
X184554762Y-76779523D01*
X184507143Y-76731904D01*
X184411905Y-76684285D01*
X184173810Y-76684285D01*
X184078571Y-76731904D01*
X184030952Y-76779523D01*
X183983333Y-76874761D01*
X183983333Y-77065238D01*
X184030952Y-77160476D01*
X184078571Y-77208095D01*
X184173810Y-77255714D01*
X196032381Y-77636666D02*
X195556190Y-77970000D01*
X196032381Y-78208095D02*
X195032381Y-78208095D01*
X195032381Y-77827142D01*
X195080000Y-77731904D01*
X195127619Y-77684285D01*
X195222857Y-77636666D01*
X195365714Y-77636666D01*
X195460952Y-77684285D01*
X195508571Y-77731904D01*
X195556190Y-77827142D01*
X195556190Y-78208095D01*
X195460952Y-77065238D02*
X195413333Y-77160476D01*
X195365714Y-77208095D01*
X195270476Y-77255714D01*
X195222857Y-77255714D01*
X195127619Y-77208095D01*
X195080000Y-77160476D01*
X195032381Y-77065238D01*
X195032381Y-76874761D01*
X195080000Y-76779523D01*
X195127619Y-76731904D01*
X195222857Y-76684285D01*
X195270476Y-76684285D01*
X195365714Y-76731904D01*
X195413333Y-76779523D01*
X195460952Y-76874761D01*
X195460952Y-77065238D01*
X195508571Y-77160476D01*
X195556190Y-77208095D01*
X195651429Y-77255714D01*
X195841905Y-77255714D01*
X195937143Y-77208095D01*
X195984762Y-77160476D01*
X196032381Y-77065238D01*
X196032381Y-76874761D01*
X195984762Y-76779523D01*
X195937143Y-76731904D01*
X195841905Y-76684285D01*
X195651429Y-76684285D01*
X195556190Y-76731904D01*
X195508571Y-76779523D01*
X195460952Y-76874761D01*
X207462381Y-79382857D02*
X206986190Y-79716191D01*
X207462381Y-79954286D02*
X206462381Y-79954286D01*
X206462381Y-79573333D01*
X206510000Y-79478095D01*
X206557619Y-79430476D01*
X206652857Y-79382857D01*
X206795714Y-79382857D01*
X206890952Y-79430476D01*
X206938571Y-79478095D01*
X206986190Y-79573333D01*
X206986190Y-79954286D01*
X207462381Y-78430476D02*
X207462381Y-79001905D01*
X207462381Y-78716191D02*
X206462381Y-78716191D01*
X206605238Y-78811429D01*
X206700476Y-78906667D01*
X206748095Y-79001905D01*
X206462381Y-77811429D02*
X206462381Y-77716190D01*
X206510000Y-77620952D01*
X206557619Y-77573333D01*
X206652857Y-77525714D01*
X206843333Y-77478095D01*
X207081429Y-77478095D01*
X207271905Y-77525714D01*
X207367143Y-77573333D01*
X207414762Y-77620952D01*
X207462381Y-77716190D01*
X207462381Y-77811429D01*
X207414762Y-77906667D01*
X207367143Y-77954286D01*
X207271905Y-78001905D01*
X207081429Y-78049524D01*
X206843333Y-78049524D01*
X206652857Y-78001905D01*
X206557619Y-77954286D01*
X206510000Y-77906667D01*
X206462381Y-77811429D01*
X163091905Y-94432381D02*
X163091905Y-93432381D01*
X163330000Y-93432381D01*
X163472858Y-93480000D01*
X163568096Y-93575238D01*
X163615715Y-93670476D01*
X163663334Y-93860952D01*
X163663334Y-94003810D01*
X163615715Y-94194286D01*
X163568096Y-94289524D01*
X163472858Y-94384762D01*
X163330000Y-94432381D01*
X163091905Y-94432381D01*
X164044286Y-93527619D02*
X164091905Y-93480000D01*
X164187143Y-93432381D01*
X164425239Y-93432381D01*
X164520477Y-93480000D01*
X164568096Y-93527619D01*
X164615715Y-93622857D01*
X164615715Y-93718095D01*
X164568096Y-93860952D01*
X163996667Y-94432381D01*
X164615715Y-94432381D01*
X152852381Y-70588095D02*
X151852381Y-70588095D01*
X151852381Y-70207142D01*
X151900000Y-70111904D01*
X151947619Y-70064285D01*
X152042857Y-70016666D01*
X152185714Y-70016666D01*
X152280952Y-70064285D01*
X152328571Y-70111904D01*
X152376190Y-70207142D01*
X152376190Y-70588095D01*
X151947619Y-69635714D02*
X151900000Y-69588095D01*
X151852381Y-69492857D01*
X151852381Y-69254761D01*
X151900000Y-69159523D01*
X151947619Y-69111904D01*
X152042857Y-69064285D01*
X152138095Y-69064285D01*
X152280952Y-69111904D01*
X152852381Y-69683333D01*
X152852381Y-69064285D01*
X154122381Y-99226666D02*
X153646190Y-99560000D01*
X154122381Y-99798095D02*
X153122381Y-99798095D01*
X153122381Y-99417142D01*
X153170000Y-99321904D01*
X153217619Y-99274285D01*
X153312857Y-99226666D01*
X153455714Y-99226666D01*
X153550952Y-99274285D01*
X153598571Y-99321904D01*
X153646190Y-99417142D01*
X153646190Y-99798095D01*
X154122381Y-98274285D02*
X154122381Y-98845714D01*
X154122381Y-98560000D02*
X153122381Y-98560000D01*
X153265238Y-98655238D01*
X153360476Y-98750476D01*
X153408095Y-98845714D01*
X189063334Y-96972381D02*
X188730000Y-96496190D01*
X188491905Y-96972381D02*
X188491905Y-95972381D01*
X188872858Y-95972381D01*
X188968096Y-96020000D01*
X189015715Y-96067619D01*
X189063334Y-96162857D01*
X189063334Y-96305714D01*
X189015715Y-96400952D01*
X188968096Y-96448571D01*
X188872858Y-96496190D01*
X188491905Y-96496190D01*
X189444286Y-96067619D02*
X189491905Y-96020000D01*
X189587143Y-95972381D01*
X189825239Y-95972381D01*
X189920477Y-96020000D01*
X189968096Y-96067619D01*
X190015715Y-96162857D01*
X190015715Y-96258095D01*
X189968096Y-96400952D01*
X189396667Y-96972381D01*
X190015715Y-96972381D01*
X170262254Y-56642261D02*
X169928920Y-56166070D01*
X169690825Y-56642261D02*
X169690825Y-55642261D01*
X170071778Y-55642261D01*
X170167016Y-55689880D01*
X170214635Y-55737499D01*
X170262254Y-55832737D01*
X170262254Y-55975594D01*
X170214635Y-56070832D01*
X170167016Y-56118451D01*
X170071778Y-56166070D01*
X169690825Y-56166070D01*
X170595587Y-55642261D02*
X171214635Y-55642261D01*
X170881301Y-56023213D01*
X171024159Y-56023213D01*
X171119397Y-56070832D01*
X171167016Y-56118451D01*
X171214635Y-56213690D01*
X171214635Y-56451785D01*
X171167016Y-56547023D01*
X171119397Y-56594642D01*
X171024159Y-56642261D01*
X170738444Y-56642261D01*
X170643206Y-56594642D01*
X170595587Y-56547023D01*
X185502254Y-56642261D02*
X185168920Y-56166070D01*
X184930825Y-56642261D02*
X184930825Y-55642261D01*
X185311778Y-55642261D01*
X185407016Y-55689880D01*
X185454635Y-55737499D01*
X185502254Y-55832737D01*
X185502254Y-55975594D01*
X185454635Y-56070832D01*
X185407016Y-56118451D01*
X185311778Y-56166070D01*
X184930825Y-56166070D01*
X186407016Y-55642261D02*
X185930825Y-55642261D01*
X185883206Y-56118451D01*
X185930825Y-56070832D01*
X186026063Y-56023213D01*
X186264159Y-56023213D01*
X186359397Y-56070832D01*
X186407016Y-56118451D01*
X186454635Y-56213690D01*
X186454635Y-56451785D01*
X186407016Y-56547023D01*
X186359397Y-56594642D01*
X186264159Y-56642261D01*
X186026063Y-56642261D01*
X185930825Y-56594642D01*
X185883206Y-56547023D01*
X204552254Y-56642261D02*
X204218920Y-56166070D01*
X203980825Y-56642261D02*
X203980825Y-55642261D01*
X204361778Y-55642261D01*
X204457016Y-55689880D01*
X204504635Y-55737499D01*
X204552254Y-55832737D01*
X204552254Y-55975594D01*
X204504635Y-56070832D01*
X204457016Y-56118451D01*
X204361778Y-56166070D01*
X203980825Y-56166070D01*
X204885587Y-55642261D02*
X205552254Y-55642261D01*
X205123682Y-56642261D01*
X193894414Y-67452501D02*
X193561080Y-66976310D01*
X193322985Y-67452501D02*
X193322985Y-66452501D01*
X193703938Y-66452501D01*
X193799176Y-66500120D01*
X193846795Y-66547739D01*
X193894414Y-66642977D01*
X193894414Y-66785834D01*
X193846795Y-66881072D01*
X193799176Y-66928691D01*
X193703938Y-66976310D01*
X193322985Y-66976310D01*
X194370604Y-67452501D02*
X194561080Y-67452501D01*
X194656319Y-67404882D01*
X194703938Y-67357263D01*
X194799176Y-67214406D01*
X194846795Y-67023930D01*
X194846795Y-66642977D01*
X194799176Y-66547739D01*
X194751557Y-66500120D01*
X194656319Y-66452501D01*
X194465842Y-66452501D01*
X194370604Y-66500120D01*
X194322985Y-66547739D01*
X194275366Y-66642977D01*
X194275366Y-66881072D01*
X194322985Y-66976310D01*
X194370604Y-67023930D01*
X194465842Y-67071549D01*
X194656319Y-67071549D01*
X194751557Y-67023930D01*
X194799176Y-66976310D01*
X194846795Y-66881072D01*
X157932381Y-94622857D02*
X157456190Y-94956191D01*
X157932381Y-95194286D02*
X156932381Y-95194286D01*
X156932381Y-94813333D01*
X156980000Y-94718095D01*
X157027619Y-94670476D01*
X157122857Y-94622857D01*
X157265714Y-94622857D01*
X157360952Y-94670476D01*
X157408571Y-94718095D01*
X157456190Y-94813333D01*
X157456190Y-95194286D01*
X157932381Y-93670476D02*
X157932381Y-94241905D01*
X157932381Y-93956191D02*
X156932381Y-93956191D01*
X157075238Y-94051429D01*
X157170476Y-94146667D01*
X157218095Y-94241905D01*
X157932381Y-92718095D02*
X157932381Y-93289524D01*
X157932381Y-93003810D02*
X156932381Y-93003810D01*
X157075238Y-93099048D01*
X157170476Y-93194286D01*
X157218095Y-93289524D01*
X207637143Y-96972381D02*
X207303809Y-96496190D01*
X207065714Y-96972381D02*
X207065714Y-95972381D01*
X207446667Y-95972381D01*
X207541905Y-96020000D01*
X207589524Y-96067619D01*
X207637143Y-96162857D01*
X207637143Y-96305714D01*
X207589524Y-96400952D01*
X207541905Y-96448571D01*
X207446667Y-96496190D01*
X207065714Y-96496190D01*
X208589524Y-96972381D02*
X208018095Y-96972381D01*
X208303809Y-96972381D02*
X208303809Y-95972381D01*
X208208571Y-96115238D01*
X208113333Y-96210476D01*
X208018095Y-96258095D01*
X208970476Y-96067619D02*
X209018095Y-96020000D01*
X209113333Y-95972381D01*
X209351429Y-95972381D01*
X209446667Y-96020000D01*
X209494286Y-96067619D01*
X209541905Y-96162857D01*
X209541905Y-96258095D01*
X209494286Y-96400952D01*
X208922857Y-96972381D01*
X209541905Y-96972381D01*
X161742381Y-73032857D02*
X161266190Y-73366191D01*
X161742381Y-73604286D02*
X160742381Y-73604286D01*
X160742381Y-73223333D01*
X160790000Y-73128095D01*
X160837619Y-73080476D01*
X160932857Y-73032857D01*
X161075714Y-73032857D01*
X161170952Y-73080476D01*
X161218571Y-73128095D01*
X161266190Y-73223333D01*
X161266190Y-73604286D01*
X161742381Y-72080476D02*
X161742381Y-72651905D01*
X161742381Y-72366191D02*
X160742381Y-72366191D01*
X160885238Y-72461429D01*
X160980476Y-72556667D01*
X161028095Y-72651905D01*
X160742381Y-71747143D02*
X160742381Y-71128095D01*
X161123333Y-71461429D01*
X161123333Y-71318571D01*
X161170952Y-71223333D01*
X161218571Y-71175714D01*
X161313810Y-71128095D01*
X161551905Y-71128095D01*
X161647143Y-71175714D01*
X161694762Y-71223333D01*
X161742381Y-71318571D01*
X161742381Y-71604286D01*
X161694762Y-71699524D01*
X161647143Y-71747143D01*
X207637143Y-91892381D02*
X207303809Y-91416190D01*
X207065714Y-91892381D02*
X207065714Y-90892381D01*
X207446667Y-90892381D01*
X207541905Y-90940000D01*
X207589524Y-90987619D01*
X207637143Y-91082857D01*
X207637143Y-91225714D01*
X207589524Y-91320952D01*
X207541905Y-91368571D01*
X207446667Y-91416190D01*
X207065714Y-91416190D01*
X208589524Y-91892381D02*
X208018095Y-91892381D01*
X208303809Y-91892381D02*
X208303809Y-90892381D01*
X208208571Y-91035238D01*
X208113333Y-91130476D01*
X208018095Y-91178095D01*
X209446667Y-91225714D02*
X209446667Y-91892381D01*
X209208571Y-90844762D02*
X208970476Y-91559048D01*
X209589524Y-91559048D01*
M02*
