G04 #@! TF.FileFunction,Copper,L1,Top,Signal*
%FSLAX46Y46*%
G04 Gerber Fmt 4.6, Leading zero omitted, Abs format (unit mm)*
G04 Created by KiCad (PCBNEW 4.0.2-stable) date 01.06.2016 19:19:13*
%MOMM*%
G01*
G04 APERTURE LIST*
%ADD10C,0.100000*%
%ADD11C,0.300000*%
%ADD12C,1.998980*%
%ADD13R,1.998980X1.998980*%
%ADD14O,1.524000X2.540000*%
%ADD15C,1.524000*%
%ADD16C,3.000000*%
%ADD17O,1.501140X2.499360*%
%ADD18O,1.998980X2.999740*%
%ADD19O,1.998980X1.998980*%
%ADD20C,0.500000*%
%ADD21C,1.000000*%
%ADD22C,1.500000*%
%ADD23C,0.254000*%
G04 APERTURE END LIST*
D10*
D11*
X150511430Y-52518571D02*
X150654287Y-52518571D01*
X150797144Y-52590000D01*
X150868573Y-52661429D01*
X150940002Y-52804286D01*
X151011430Y-53090000D01*
X151011430Y-53447143D01*
X150940002Y-53732857D01*
X150868573Y-53875714D01*
X150797144Y-53947143D01*
X150654287Y-54018571D01*
X150511430Y-54018571D01*
X150368573Y-53947143D01*
X150297144Y-53875714D01*
X150225716Y-53732857D01*
X150154287Y-53447143D01*
X150154287Y-53090000D01*
X150225716Y-52804286D01*
X150297144Y-52661429D01*
X150368573Y-52590000D01*
X150511430Y-52518571D01*
X152297144Y-52518571D02*
X152011430Y-52518571D01*
X151868573Y-52590000D01*
X151797144Y-52661429D01*
X151654287Y-52875714D01*
X151582858Y-53161429D01*
X151582858Y-53732857D01*
X151654287Y-53875714D01*
X151725715Y-53947143D01*
X151868573Y-54018571D01*
X152154287Y-54018571D01*
X152297144Y-53947143D01*
X152368573Y-53875714D01*
X152440001Y-53732857D01*
X152440001Y-53375714D01*
X152368573Y-53232857D01*
X152297144Y-53161429D01*
X152154287Y-53090000D01*
X151868573Y-53090000D01*
X151725715Y-53161429D01*
X151654287Y-53232857D01*
X151582858Y-53375714D01*
X154154286Y-52447143D02*
X152868572Y-54375714D01*
X154582858Y-52661429D02*
X154654287Y-52590000D01*
X154797144Y-52518571D01*
X155154287Y-52518571D01*
X155297144Y-52590000D01*
X155368573Y-52661429D01*
X155440001Y-52804286D01*
X155440001Y-52947143D01*
X155368573Y-53161429D01*
X154511430Y-54018571D01*
X155440001Y-54018571D01*
X156368572Y-52518571D02*
X156511429Y-52518571D01*
X156654286Y-52590000D01*
X156725715Y-52661429D01*
X156797144Y-52804286D01*
X156868572Y-53090000D01*
X156868572Y-53447143D01*
X156797144Y-53732857D01*
X156725715Y-53875714D01*
X156654286Y-53947143D01*
X156511429Y-54018571D01*
X156368572Y-54018571D01*
X156225715Y-53947143D01*
X156154286Y-53875714D01*
X156082858Y-53732857D01*
X156011429Y-53447143D01*
X156011429Y-53090000D01*
X156082858Y-52804286D01*
X156154286Y-52661429D01*
X156225715Y-52590000D01*
X156368572Y-52518571D01*
X158297143Y-54018571D02*
X157440000Y-54018571D01*
X157868572Y-54018571D02*
X157868572Y-52518571D01*
X157725715Y-52732857D01*
X157582857Y-52875714D01*
X157440000Y-52947143D01*
X159582857Y-52518571D02*
X159297143Y-52518571D01*
X159154286Y-52590000D01*
X159082857Y-52661429D01*
X158940000Y-52875714D01*
X158868571Y-53161429D01*
X158868571Y-53732857D01*
X158940000Y-53875714D01*
X159011428Y-53947143D01*
X159154286Y-54018571D01*
X159440000Y-54018571D01*
X159582857Y-53947143D01*
X159654286Y-53875714D01*
X159725714Y-53732857D01*
X159725714Y-53375714D01*
X159654286Y-53232857D01*
X159582857Y-53161429D01*
X159440000Y-53090000D01*
X159154286Y-53090000D01*
X159011428Y-53161429D01*
X158940000Y-53232857D01*
X158868571Y-53375714D01*
X209442857Y-76742856D02*
X209514286Y-76528570D01*
X209585714Y-76457142D01*
X209728571Y-76385713D01*
X209942857Y-76385713D01*
X210085714Y-76457142D01*
X210157143Y-76528570D01*
X210228571Y-76671428D01*
X210228571Y-77242856D01*
X208728571Y-77242856D01*
X208728571Y-76742856D01*
X208800000Y-76599999D01*
X208871429Y-76528570D01*
X209014286Y-76457142D01*
X209157143Y-76457142D01*
X209300000Y-76528570D01*
X209371429Y-76599999D01*
X209442857Y-76742856D01*
X209442857Y-77242856D01*
X210228571Y-75099999D02*
X209442857Y-75099999D01*
X209300000Y-75171428D01*
X209228571Y-75314285D01*
X209228571Y-75599999D01*
X209300000Y-75742856D01*
X210157143Y-75099999D02*
X210228571Y-75242856D01*
X210228571Y-75599999D01*
X210157143Y-75742856D01*
X210014286Y-75814285D01*
X209871429Y-75814285D01*
X209728571Y-75742856D01*
X209657143Y-75599999D01*
X209657143Y-75242856D01*
X209585714Y-75099999D01*
X209228571Y-74599999D02*
X209228571Y-74028570D01*
X208728571Y-74385713D02*
X210014286Y-74385713D01*
X210157143Y-74314285D01*
X210228571Y-74171427D01*
X210228571Y-74028570D01*
X209228571Y-73742856D02*
X209228571Y-73171427D01*
X208728571Y-73528570D02*
X210014286Y-73528570D01*
X210157143Y-73457142D01*
X210228571Y-73314284D01*
X210228571Y-73171427D01*
X210157143Y-72099999D02*
X210228571Y-72242856D01*
X210228571Y-72528570D01*
X210157143Y-72671427D01*
X210014286Y-72742856D01*
X209442857Y-72742856D01*
X209300000Y-72671427D01*
X209228571Y-72528570D01*
X209228571Y-72242856D01*
X209300000Y-72099999D01*
X209442857Y-72028570D01*
X209585714Y-72028570D01*
X209728571Y-72742856D01*
X210228571Y-71385713D02*
X209228571Y-71385713D01*
X209514286Y-71385713D02*
X209371429Y-71314285D01*
X209300000Y-71242856D01*
X209228571Y-71099999D01*
X209228571Y-70957142D01*
X209228571Y-70599999D02*
X210228571Y-70242856D01*
X209228571Y-69885714D02*
X210228571Y-70242856D01*
X210585714Y-70385714D01*
X210657143Y-70457142D01*
X210728571Y-70599999D01*
X209228571Y-68385714D02*
X209228571Y-67814285D01*
X208728571Y-68171428D02*
X210014286Y-68171428D01*
X210157143Y-68100000D01*
X210228571Y-67957142D01*
X210228571Y-67814285D01*
X210157143Y-66742857D02*
X210228571Y-66885714D01*
X210228571Y-67171428D01*
X210157143Y-67314285D01*
X210014286Y-67385714D01*
X209442857Y-67385714D01*
X209300000Y-67314285D01*
X209228571Y-67171428D01*
X209228571Y-66885714D01*
X209300000Y-66742857D01*
X209442857Y-66671428D01*
X209585714Y-66671428D01*
X209728571Y-67385714D01*
X210157143Y-66100000D02*
X210228571Y-65957143D01*
X210228571Y-65671428D01*
X210157143Y-65528571D01*
X210014286Y-65457143D01*
X209942857Y-65457143D01*
X209800000Y-65528571D01*
X209728571Y-65671428D01*
X209728571Y-65885714D01*
X209657143Y-66028571D01*
X209514286Y-66100000D01*
X209442857Y-66100000D01*
X209300000Y-66028571D01*
X209228571Y-65885714D01*
X209228571Y-65671428D01*
X209300000Y-65528571D01*
X209228571Y-65028571D02*
X209228571Y-64457142D01*
X208728571Y-64814285D02*
X210014286Y-64814285D01*
X210157143Y-64742857D01*
X210228571Y-64599999D01*
X210228571Y-64457142D01*
X210157143Y-63385714D02*
X210228571Y-63528571D01*
X210228571Y-63814285D01*
X210157143Y-63957142D01*
X210014286Y-64028571D01*
X209442857Y-64028571D01*
X209300000Y-63957142D01*
X209228571Y-63814285D01*
X209228571Y-63528571D01*
X209300000Y-63385714D01*
X209442857Y-63314285D01*
X209585714Y-63314285D01*
X209728571Y-64028571D01*
X210228571Y-62671428D02*
X209228571Y-62671428D01*
X209514286Y-62671428D02*
X209371429Y-62600000D01*
X209300000Y-62528571D01*
X209228571Y-62385714D01*
X209228571Y-62242857D01*
D12*
X186690000Y-91437460D03*
D13*
X176530000Y-91437460D03*
D14*
X212090000Y-101600000D03*
X209550000Y-101600000D03*
X207010000Y-101600000D03*
X199390000Y-101600000D03*
X201930000Y-101600000D03*
X204470000Y-101600000D03*
X194310000Y-101600000D03*
X191770000Y-101600000D03*
X189230000Y-101600000D03*
X184150000Y-101600000D03*
X181610000Y-101600000D03*
X212090000Y-53340000D03*
X209550000Y-53340000D03*
X207010000Y-53340000D03*
X204470000Y-53340000D03*
X201930000Y-53340000D03*
X199390000Y-53340000D03*
X196850000Y-53340000D03*
X194310000Y-53340000D03*
X190246000Y-53340000D03*
X187706000Y-53340000D03*
X185166000Y-53340000D03*
X182626000Y-53340000D03*
X180086000Y-53340000D03*
X177546000Y-53340000D03*
X175006000Y-53340000D03*
X172466000Y-53340000D03*
X186690000Y-101600000D03*
X169926000Y-53340000D03*
X167386000Y-53340000D03*
X179070000Y-101600000D03*
X176530000Y-101600000D03*
D15*
X212090000Y-73660000D03*
X214630000Y-73660000D03*
X212090000Y-76200000D03*
X214630000Y-76200000D03*
X212090000Y-78740000D03*
X214630000Y-78740000D03*
D12*
X171450000Y-96520000D03*
D13*
X161290000Y-96520000D03*
D16*
X159941260Y-65919360D03*
X154940000Y-63420000D03*
X154940000Y-58420000D03*
X159941260Y-60919360D03*
D17*
X168910000Y-69850000D03*
X166370000Y-69850000D03*
X171450000Y-69850000D03*
X180340000Y-69850000D03*
X177800000Y-69850000D03*
X182880000Y-69850000D03*
X191770000Y-69850000D03*
X189230000Y-69850000D03*
X194310000Y-69850000D03*
X203200000Y-69850000D03*
X200660000Y-69850000D03*
X205740000Y-69850000D03*
D18*
X168910000Y-84279740D03*
X168910000Y-78280260D03*
X180340000Y-84279740D03*
X180340000Y-78280260D03*
X191770000Y-84279740D03*
X191770000Y-78280260D03*
X203200000Y-84279740D03*
X203200000Y-78280260D03*
D12*
X171450000Y-91437460D03*
D13*
X161290000Y-91437460D03*
D19*
X152400000Y-73660000D03*
D13*
X152400000Y-81280000D03*
D19*
X152400000Y-78740000D03*
X152400000Y-76200000D03*
D12*
X153670000Y-86360000D03*
X153670000Y-96520000D03*
X176530000Y-96520000D03*
X186690000Y-96520000D03*
X165100000Y-59690000D03*
X175260000Y-59690000D03*
X180340000Y-59690000D03*
X190500000Y-59690000D03*
X199390000Y-59690000D03*
X209550000Y-59690000D03*
X199390000Y-63500000D03*
X189230000Y-63500000D03*
X157480000Y-81280000D03*
X157480000Y-91440000D03*
X204470000Y-96520000D03*
X194310000Y-96520000D03*
X161290000Y-76200000D03*
X161290000Y-86360000D03*
X204470000Y-91440000D03*
X194310000Y-91440000D03*
D20*
X186690000Y-96520000D02*
X182880000Y-96520000D01*
X149860000Y-76200000D02*
X152400000Y-73660000D01*
X149860000Y-90170000D02*
X149860000Y-76200000D01*
X158750000Y-99060000D02*
X149860000Y-90170000D01*
X180340000Y-99060000D02*
X158750000Y-99060000D01*
X182880000Y-96520000D02*
X180340000Y-99060000D01*
X189230000Y-63500000D02*
X189230000Y-60960000D01*
X189230000Y-60960000D02*
X190500000Y-59690000D01*
X189230000Y-63500000D02*
X189230000Y-66040000D01*
X205740000Y-67310000D02*
X205740000Y-63500000D01*
X205740000Y-63500000D02*
X209550000Y-59690000D01*
D21*
X205740000Y-69850000D02*
X205740000Y-67310000D01*
D22*
X204470000Y-66040000D02*
X193040000Y-66040000D01*
D21*
X205740000Y-67310000D02*
X204470000Y-66040000D01*
X194310000Y-69850000D02*
X194310000Y-67310000D01*
D22*
X193040000Y-66040000D02*
X189230000Y-66040000D01*
X189230000Y-66040000D02*
X181610000Y-66040000D01*
D21*
X194310000Y-67310000D02*
X193040000Y-66040000D01*
X182880000Y-69850000D02*
X182880000Y-67310000D01*
D23*
X168910000Y-66040000D02*
X168910000Y-65919360D01*
D22*
X181610000Y-66040000D02*
X168910000Y-66040000D01*
D21*
X182880000Y-67310000D02*
X181610000Y-66040000D01*
X171450000Y-69850000D02*
X171450000Y-68338720D01*
X171450000Y-68338720D02*
X169030640Y-65919360D01*
D22*
X159941260Y-65919360D02*
X168910000Y-65919360D01*
D23*
X168910000Y-65919360D02*
X169030640Y-65919360D01*
D20*
X169030640Y-65919360D02*
X175260000Y-59690000D01*
D22*
X154940000Y-63420000D02*
X157441900Y-63420000D01*
X157441900Y-63420000D02*
X159941260Y-65919360D01*
D20*
X152400000Y-73660000D02*
X152400000Y-65960000D01*
X152400000Y-65960000D02*
X154940000Y-63420000D01*
X194310000Y-96520000D02*
X194310000Y-91440000D01*
X186690000Y-96520000D02*
X194310000Y-96520000D01*
X189230000Y-101600000D02*
X189230000Y-99060000D01*
X189230000Y-99060000D02*
X186690000Y-96520000D01*
X189230000Y-101600000D02*
X191770000Y-101600000D01*
D23*
X191848740Y-101521260D02*
X191770000Y-101600000D01*
D20*
X171450000Y-96520000D02*
X176530000Y-96520000D01*
X201930000Y-101600000D02*
X201930000Y-93980000D01*
X201930000Y-93980000D02*
X204470000Y-91440000D01*
X161290000Y-91437460D02*
X165102540Y-91437460D01*
X207010000Y-93980000D02*
X204470000Y-96520000D01*
X207010000Y-90170000D02*
X207010000Y-93980000D01*
X204470000Y-87630000D02*
X207010000Y-90170000D01*
X168910000Y-87630000D02*
X204470000Y-87630000D01*
X165102540Y-91437460D02*
X168910000Y-87630000D01*
M02*
