%TF.GenerationSoftware,KiCad,Pcbnew,(6.0.8)*%
%TF.CreationDate,2022-10-08T06:19:35+02:00*%
%TF.ProjectId,BatteryTester,42617474-6572-4795-9465-737465722e6b,rev?*%
%TF.SameCoordinates,Original*%
%TF.FileFunction,Soldermask,Top*%
%TF.FilePolarity,Negative*%
%FSLAX46Y46*%
G04 Gerber Fmt 4.6, Leading zero omitted, Abs format (unit mm)*
G04 Created by KiCad (PCBNEW (6.0.8)) date 2022-10-08 06:19:35*
%MOMM*%
%LPD*%
G01*
G04 APERTURE LIST*
%ADD10C,1.998980*%
%ADD11R,1.998980X1.998980*%
%ADD12C,3.000000*%
%ADD13O,1.501140X2.499360*%
%ADD14O,1.998980X2.999740*%
%ADD15C,3.175000*%
%ADD16O,1.524000X2.540000*%
%ADD17C,1.524000*%
%ADD18O,1.998980X1.998980*%
G04 APERTURE END LIST*
D10*
%TO.C,D1*%
X171450000Y-96520000D03*
D11*
X161290000Y-96520000D03*
%TD*%
D12*
%TO.C,P1*%
X159941260Y-60919360D03*
X154940000Y-58420000D03*
X159941260Y-65919360D03*
X154940000Y-63420000D03*
%TD*%
D13*
%TO.C,Q1*%
X168910000Y-69850000D03*
X166370000Y-69850000D03*
X171450000Y-69850000D03*
%TD*%
%TO.C,Q2*%
X180340000Y-69850000D03*
X177800000Y-69850000D03*
X182880000Y-69850000D03*
%TD*%
%TO.C,Q3*%
X191770000Y-69850000D03*
X189230000Y-69850000D03*
X194310000Y-69850000D03*
%TD*%
%TO.C,Q4*%
X203200000Y-69850000D03*
X200660000Y-69850000D03*
X205740000Y-69850000D03*
%TD*%
D14*
%TO.C,R4*%
X168910000Y-84279740D03*
X168910000Y-78280260D03*
%TD*%
%TO.C,R6*%
X180340000Y-84279740D03*
X180340000Y-78280260D03*
%TD*%
%TO.C,R8*%
X191770000Y-84279740D03*
X191770000Y-78280260D03*
%TD*%
%TO.C,R10*%
X203200000Y-84279740D03*
X203200000Y-78280260D03*
%TD*%
D15*
%TO.C,SHIELD1*%
X214630000Y-96520000D03*
X163830000Y-53340000D03*
X214630000Y-68580000D03*
X162560000Y-101600000D03*
D16*
X212090000Y-53340000D03*
X209550000Y-53340000D03*
X207010000Y-53340000D03*
X204470000Y-53340000D03*
X184150000Y-101600000D03*
X201930000Y-53340000D03*
X199390000Y-53340000D03*
X186690000Y-101600000D03*
X196850000Y-53340000D03*
X194310000Y-53340000D03*
X190246000Y-53340000D03*
X187706000Y-53340000D03*
X185166000Y-53340000D03*
X182626000Y-53340000D03*
X180086000Y-53340000D03*
X177546000Y-53340000D03*
X199390000Y-101600000D03*
X201930000Y-101600000D03*
X204470000Y-101600000D03*
X207010000Y-101600000D03*
X209550000Y-101600000D03*
X212090000Y-101600000D03*
X172466000Y-53340000D03*
X189230000Y-101600000D03*
X191770000Y-101600000D03*
X175006000Y-53340000D03*
X179070000Y-101600000D03*
X176530000Y-101600000D03*
X181610000Y-101600000D03*
X167386000Y-53340000D03*
X169926000Y-53340000D03*
D17*
X212090000Y-73660000D03*
X214630000Y-73660000D03*
X212090000Y-76200000D03*
X214630000Y-76200000D03*
X212090000Y-78740000D03*
X214630000Y-78740000D03*
D16*
X194310000Y-101600000D03*
%TD*%
D11*
%TO.C,D2*%
X161290000Y-91437460D03*
D10*
X171450000Y-91437460D03*
%TD*%
D11*
%TO.C,D3*%
X176530000Y-91437460D03*
D10*
X186690000Y-91437460D03*
%TD*%
D11*
%TO.C,P2*%
X152400000Y-81280000D03*
D18*
X152400000Y-78740000D03*
X152400000Y-76200000D03*
X152400000Y-73660000D03*
%TD*%
D10*
%TO.C,R1*%
X153670000Y-86360000D03*
X153670000Y-96520000D03*
%TD*%
%TO.C,R2*%
X176530000Y-96520000D03*
X186690000Y-96520000D03*
%TD*%
%TO.C,R3*%
X165100000Y-59690000D03*
X175260000Y-59690000D03*
%TD*%
%TO.C,R5*%
X180340000Y-59690000D03*
X190500000Y-59690000D03*
%TD*%
%TO.C,R7*%
X199390000Y-59690000D03*
X209550000Y-59690000D03*
%TD*%
%TO.C,R9*%
X199390000Y-63500000D03*
X189230000Y-63500000D03*
%TD*%
%TO.C,R11*%
X157480000Y-81280000D03*
X157480000Y-91440000D03*
%TD*%
%TO.C,R12*%
X204470000Y-96520000D03*
X194310000Y-96520000D03*
%TD*%
%TO.C,R13*%
X161290000Y-76200000D03*
X161290000Y-86360000D03*
%TD*%
%TO.C,R14*%
X204470000Y-91440000D03*
X194310000Y-91440000D03*
%TD*%
M02*
