%TF.GenerationSoftware,KiCad,Pcbnew,(6.0.8)*%
%TF.CreationDate,2022-10-08T06:19:35+02:00*%
%TF.ProjectId,BatteryTester,42617474-6572-4795-9465-737465722e6b,rev?*%
%TF.SameCoordinates,Original*%
%TF.FileFunction,Copper,L2,Bot*%
%TF.FilePolarity,Positive*%
%FSLAX46Y46*%
G04 Gerber Fmt 4.6, Leading zero omitted, Abs format (unit mm)*
G04 Created by KiCad (PCBNEW (6.0.8)) date 2022-10-08 06:19:35*
%MOMM*%
%LPD*%
G01*
G04 APERTURE LIST*
%ADD10C,0.300000*%
%TA.AperFunction,NonConductor*%
%ADD11C,0.300000*%
%TD*%
%TA.AperFunction,ComponentPad*%
%ADD12C,1.998980*%
%TD*%
%TA.AperFunction,ComponentPad*%
%ADD13R,1.998980X1.998980*%
%TD*%
%TA.AperFunction,ComponentPad*%
%ADD14C,3.000000*%
%TD*%
%TA.AperFunction,ComponentPad*%
%ADD15O,1.501140X2.499360*%
%TD*%
%TA.AperFunction,ComponentPad*%
%ADD16O,1.998980X2.999740*%
%TD*%
%TA.AperFunction,ComponentPad*%
%ADD17O,1.524000X2.540000*%
%TD*%
%TA.AperFunction,ComponentPad*%
%ADD18C,1.524000*%
%TD*%
%TA.AperFunction,ComponentPad*%
%ADD19O,1.998980X1.998980*%
%TD*%
%TA.AperFunction,Conductor*%
%ADD20C,0.500000*%
%TD*%
%TA.AperFunction,Conductor*%
%ADD21C,0.254000*%
%TD*%
%TA.AperFunction,Conductor*%
%ADD22C,1.500000*%
%TD*%
G04 APERTURE END LIST*
D10*
D11*
X211498571Y-82920000D02*
X209998571Y-82920000D01*
X211427142Y-82920000D02*
X211498571Y-82777142D01*
X211498571Y-82491428D01*
X211427142Y-82348571D01*
X211355714Y-82277142D01*
X211212857Y-82205714D01*
X210784285Y-82205714D01*
X210641428Y-82277142D01*
X210570000Y-82348571D01*
X210498571Y-82491428D01*
X210498571Y-82777142D01*
X210570000Y-82920000D01*
X211427142Y-84205714D02*
X211498571Y-84062857D01*
X211498571Y-83777142D01*
X211427142Y-83634285D01*
X211284285Y-83562857D01*
X210712857Y-83562857D01*
X210570000Y-83634285D01*
X210498571Y-83777142D01*
X210498571Y-84062857D01*
X210570000Y-84205714D01*
X210712857Y-84277142D01*
X210855714Y-84277142D01*
X210998571Y-83562857D01*
X211427142Y-84848571D02*
X211498571Y-84991428D01*
X211498571Y-85277142D01*
X211427142Y-85420000D01*
X211284285Y-85491428D01*
X211212857Y-85491428D01*
X211070000Y-85420000D01*
X210998571Y-85277142D01*
X210998571Y-85062857D01*
X210927142Y-84920000D01*
X210784285Y-84848571D01*
X210712857Y-84848571D01*
X210570000Y-84920000D01*
X210498571Y-85062857D01*
X210498571Y-85277142D01*
X210570000Y-85420000D01*
X211498571Y-86134285D02*
X210498571Y-86134285D01*
X209998571Y-86134285D02*
X210070000Y-86062857D01*
X210141428Y-86134285D01*
X210070000Y-86205714D01*
X209998571Y-86134285D01*
X210141428Y-86134285D01*
X210498571Y-87491428D02*
X211712857Y-87491428D01*
X211855714Y-87420000D01*
X211927142Y-87348571D01*
X211998571Y-87205714D01*
X211998571Y-86991428D01*
X211927142Y-86848571D01*
X211427142Y-87491428D02*
X211498571Y-87348571D01*
X211498571Y-87062857D01*
X211427142Y-86920000D01*
X211355714Y-86848571D01*
X211212857Y-86777142D01*
X210784285Y-86777142D01*
X210641428Y-86848571D01*
X210570000Y-86920000D01*
X210498571Y-87062857D01*
X210498571Y-87348571D01*
X210570000Y-87491428D01*
X210498571Y-88205714D02*
X211498571Y-88205714D01*
X210641428Y-88205714D02*
X210570000Y-88277142D01*
X210498571Y-88420000D01*
X210498571Y-88634285D01*
X210570000Y-88777142D01*
X210712857Y-88848571D01*
X211498571Y-88848571D01*
X211427142Y-90134285D02*
X211498571Y-89991428D01*
X211498571Y-89705714D01*
X211427142Y-89562857D01*
X211284285Y-89491428D01*
X210712857Y-89491428D01*
X210570000Y-89562857D01*
X210498571Y-89705714D01*
X210498571Y-89991428D01*
X210570000Y-90134285D01*
X210712857Y-90205714D01*
X210855714Y-90205714D01*
X210998571Y-89491428D01*
X211498571Y-90848571D02*
X210498571Y-90848571D01*
X210784285Y-90848571D02*
X210641428Y-90920000D01*
X210570000Y-90991428D01*
X210498571Y-91134285D01*
X210498571Y-91277142D01*
X210141428Y-91705714D02*
X210070000Y-91777142D01*
X209998571Y-91920000D01*
X209998571Y-92277142D01*
X210070000Y-92420000D01*
X210141428Y-92491428D01*
X210284285Y-92562857D01*
X210427142Y-92562857D01*
X210641428Y-92491428D01*
X211498571Y-91634285D01*
X211498571Y-92562857D01*
X211498571Y-93205714D02*
X209998571Y-93205714D01*
X210927142Y-93348571D02*
X211498571Y-93777142D01*
X210498571Y-93777142D02*
X211070000Y-93205714D01*
X210141428Y-94348571D02*
X210070000Y-94420000D01*
X209998571Y-94562857D01*
X209998571Y-94920000D01*
X210070000Y-95062857D01*
X210141428Y-95134285D01*
X210284285Y-95205714D01*
X210427142Y-95205714D01*
X210641428Y-95134285D01*
X211498571Y-94277142D01*
X211498571Y-95205714D01*
X211355714Y-95848571D02*
X211427142Y-95920000D01*
X211498571Y-95848571D01*
X211427142Y-95777142D01*
X211355714Y-95848571D01*
X211498571Y-95848571D01*
X211498571Y-97205714D02*
X210712857Y-97205714D01*
X210570000Y-97134285D01*
X210498571Y-96991428D01*
X210498571Y-96705714D01*
X210570000Y-96562857D01*
X211427142Y-97205714D02*
X211498571Y-97062857D01*
X211498571Y-96705714D01*
X211427142Y-96562857D01*
X211284285Y-96491428D01*
X211141428Y-96491428D01*
X210998571Y-96562857D01*
X210927142Y-96705714D01*
X210927142Y-97062857D01*
X210855714Y-97205714D01*
X210498571Y-97705714D02*
X210498571Y-98277142D01*
X209998571Y-97920000D02*
X211284285Y-97920000D01*
X211427142Y-97991428D01*
X211498571Y-98134285D01*
X211498571Y-98277142D01*
D12*
%TO.P,D1,1*%
%TO.N,Net-(D1-Pad1)*%
X171450000Y-96520000D03*
D13*
%TO.P,D1,2*%
%TO.N,+5V*%
X161290000Y-96520000D03*
%TD*%
D14*
%TO.P,P1,1*%
%TO.N,Net-(P1-Pad1)*%
X159941260Y-60919360D03*
X154940000Y-58420000D03*
%TO.P,P1,2*%
%TO.N,GND*%
X159941260Y-65919360D03*
X154940000Y-63420000D03*
%TD*%
D15*
%TO.P,Q1,D*%
%TO.N,Net-(Q1-PadD)*%
X168910000Y-69850000D03*
%TO.P,Q1,G*%
%TO.N,Net-(Q1-PadG)*%
X166370000Y-69850000D03*
%TO.P,Q1,S*%
%TO.N,GND*%
X171450000Y-69850000D03*
%TD*%
%TO.P,Q2,D*%
%TO.N,Net-(Q2-PadD)*%
X180340000Y-69850000D03*
%TO.P,Q2,G*%
%TO.N,Net-(Q2-PadG)*%
X177800000Y-69850000D03*
%TO.P,Q2,S*%
%TO.N,GND*%
X182880000Y-69850000D03*
%TD*%
%TO.P,Q3,D*%
%TO.N,Net-(Q3-PadD)*%
X191770000Y-69850000D03*
%TO.P,Q3,G*%
%TO.N,Net-(Q3-PadG)*%
X189230000Y-69850000D03*
%TO.P,Q3,S*%
%TO.N,GND*%
X194310000Y-69850000D03*
%TD*%
%TO.P,Q4,D*%
%TO.N,Net-(Q4-PadD)*%
X203200000Y-69850000D03*
%TO.P,Q4,G*%
%TO.N,Net-(Q4-PadG)*%
X200660000Y-69850000D03*
%TO.P,Q4,S*%
%TO.N,GND*%
X205740000Y-69850000D03*
%TD*%
D16*
%TO.P,R4,1*%
%TO.N,Net-(P1-Pad1)*%
X168910000Y-84279740D03*
%TO.P,R4,2*%
%TO.N,Net-(Q1-PadD)*%
X168910000Y-78280260D03*
%TD*%
%TO.P,R6,1*%
%TO.N,Net-(P1-Pad1)*%
X180340000Y-84279740D03*
%TO.P,R6,2*%
%TO.N,Net-(Q2-PadD)*%
X180340000Y-78280260D03*
%TD*%
%TO.P,R8,1*%
%TO.N,Net-(P1-Pad1)*%
X191770000Y-84279740D03*
%TO.P,R8,2*%
%TO.N,Net-(Q3-PadD)*%
X191770000Y-78280260D03*
%TD*%
%TO.P,R10,1*%
%TO.N,Net-(P1-Pad1)*%
X203200000Y-84279740D03*
%TO.P,R10,2*%
%TO.N,Net-(Q4-PadD)*%
X203200000Y-78280260D03*
%TD*%
D17*
%TO.P,SHIELD1,0*%
%TO.N,Net-(SHIELD1-Pad0)*%
X212090000Y-53340000D03*
%TO.P,SHIELD1,1*%
%TO.N,Net-(SHIELD1-Pad1)*%
X209550000Y-53340000D03*
%TO.P,SHIELD1,2*%
%TO.N,Net-(SHIELD1-Pad2)*%
X207010000Y-53340000D03*
%TO.P,SHIELD1,3*%
%TO.N,Net-(SHIELD1-Pad3)*%
X204470000Y-53340000D03*
%TO.P,SHIELD1,3V3*%
%TO.N,Net-(SHIELD1-Pad3V3)*%
X184150000Y-101600000D03*
%TO.P,SHIELD1,4*%
%TO.N,Net-(Q4-PadG)*%
X201930000Y-53340000D03*
%TO.P,SHIELD1,5*%
%TO.N,Net-(Q3-PadG)*%
X199390000Y-53340000D03*
%TO.P,SHIELD1,5V*%
%TO.N,+5V*%
X186690000Y-101600000D03*
%TO.P,SHIELD1,6*%
%TO.N,Net-(Q2-PadG)*%
X196850000Y-53340000D03*
%TO.P,SHIELD1,7*%
%TO.N,Net-(Q1-PadG)*%
X194310000Y-53340000D03*
%TO.P,SHIELD1,8*%
%TO.N,Net-(SHIELD1-Pad8)*%
X190246000Y-53340000D03*
%TO.P,SHIELD1,9*%
%TO.N,Net-(SHIELD1-Pad9)*%
X187706000Y-53340000D03*
%TO.P,SHIELD1,10*%
%TO.N,Net-(SHIELD1-Pad10)*%
X185166000Y-53340000D03*
%TO.P,SHIELD1,11*%
%TO.N,Net-(SHIELD1-Pad11)*%
X182626000Y-53340000D03*
%TO.P,SHIELD1,12*%
%TO.N,Net-(SHIELD1-Pad12)*%
X180086000Y-53340000D03*
%TO.P,SHIELD1,13*%
%TO.N,Net-(SHIELD1-Pad13)*%
X177546000Y-53340000D03*
%TO.P,SHIELD1,AD0*%
%TO.N,Net-(D1-Pad1)*%
X199390000Y-101600000D03*
%TO.P,SHIELD1,AD1*%
%TO.N,Net-(D3-Pad1)*%
X201930000Y-101600000D03*
%TO.P,SHIELD1,AD2*%
%TO.N,Net-(D2-Pad1)*%
X204470000Y-101600000D03*
%TO.P,SHIELD1,AD3*%
%TO.N,Net-(SHIELD1-PadAD3)*%
X207010000Y-101600000D03*
%TO.P,SHIELD1,AD4*%
%TO.N,Net-(SHIELD1-PadAD4)*%
X209550000Y-101600000D03*
%TO.P,SHIELD1,AD5*%
%TO.N,Net-(SHIELD1-PadAD5)*%
X212090000Y-101600000D03*
%TO.P,SHIELD1,AREF*%
%TO.N,Net-(SHIELD1-PadAREF)*%
X172466000Y-53340000D03*
%TO.P,SHIELD1,GND1*%
%TO.N,GND*%
X189230000Y-101600000D03*
%TO.P,SHIELD1,GND2*%
X191770000Y-101600000D03*
%TO.P,SHIELD1,GND3*%
%TO.N,Net-(SHIELD1-PadGND3)*%
X175006000Y-53340000D03*
%TO.P,SHIELD1,IO_R*%
%TO.N,Net-(SHIELD1-PadIO_R)*%
X179070000Y-101600000D03*
%TO.P,SHIELD1,NC*%
%TO.N,Net-(SHIELD1-PadNC)*%
X176530000Y-101600000D03*
%TO.P,SHIELD1,RST*%
%TO.N,Net-(SHIELD1-PadRST)*%
X181610000Y-101600000D03*
%TO.P,SHIELD1,SCL*%
%TO.N,Net-(SHIELD1-PadSCL)*%
X167386000Y-53340000D03*
%TO.P,SHIELD1,SDA*%
%TO.N,Net-(SHIELD1-PadSDA)*%
X169926000Y-53340000D03*
D18*
%TO.P,SHIELD1,SP1*%
%TO.N,Net-(SHIELD1-PadSP1)*%
X212090000Y-73660000D03*
%TO.P,SHIELD1,SP2*%
%TO.N,Net-(SHIELD1-PadSP2)*%
X214630000Y-73660000D03*
%TO.P,SHIELD1,SP3*%
%TO.N,Net-(SHIELD1-PadSP3)*%
X212090000Y-76200000D03*
%TO.P,SHIELD1,SP4*%
%TO.N,Net-(SHIELD1-PadSP4)*%
X214630000Y-76200000D03*
%TO.P,SHIELD1,SP5*%
%TO.N,Net-(SHIELD1-PadSP5)*%
X212090000Y-78740000D03*
%TO.P,SHIELD1,SP6*%
%TO.N,Net-(SHIELD1-PadSP6)*%
X214630000Y-78740000D03*
D17*
%TO.P,SHIELD1,V_IN*%
%TO.N,Net-(SHIELD1-PadV_IN)*%
X194310000Y-101600000D03*
%TD*%
D13*
%TO.P,D2,1*%
%TO.N,Net-(D2-Pad1)*%
X161290000Y-91437460D03*
D12*
%TO.P,D2,2*%
%TO.N,+5V*%
X171450000Y-91437460D03*
%TD*%
D13*
%TO.P,D3,1*%
%TO.N,Net-(D3-Pad1)*%
X176530000Y-91437460D03*
D12*
%TO.P,D3,2*%
%TO.N,+5V*%
X186690000Y-91437460D03*
%TD*%
D13*
%TO.P,P2,1*%
%TO.N,Net-(P1-Pad1)*%
X152400000Y-81280000D03*
D19*
%TO.P,P2,2*%
%TO.N,Net-(P2-Pad2)*%
X152400000Y-78740000D03*
%TO.P,P2,3*%
%TO.N,Net-(P2-Pad3)*%
X152400000Y-76200000D03*
%TO.P,P2,4*%
%TO.N,GND*%
X152400000Y-73660000D03*
%TD*%
D12*
%TO.P,R1,1*%
%TO.N,Net-(P1-Pad1)*%
X153670000Y-86360000D03*
%TO.P,R1,2*%
%TO.N,Net-(D1-Pad1)*%
X153670000Y-96520000D03*
%TD*%
%TO.P,R2,1*%
%TO.N,Net-(D1-Pad1)*%
X176530000Y-96520000D03*
%TO.P,R2,2*%
%TO.N,GND*%
X186690000Y-96520000D03*
%TD*%
%TO.P,R3,1*%
%TO.N,Net-(Q1-PadG)*%
X165100000Y-59690000D03*
%TO.P,R3,2*%
%TO.N,GND*%
X175260000Y-59690000D03*
%TD*%
%TO.P,R5,1*%
%TO.N,Net-(Q2-PadG)*%
X180340000Y-59690000D03*
%TO.P,R5,2*%
%TO.N,GND*%
X190500000Y-59690000D03*
%TD*%
%TO.P,R7,1*%
%TO.N,Net-(Q3-PadG)*%
X199390000Y-59690000D03*
%TO.P,R7,2*%
%TO.N,GND*%
X209550000Y-59690000D03*
%TD*%
%TO.P,R9,1*%
%TO.N,Net-(Q4-PadG)*%
X199390000Y-63500000D03*
%TO.P,R9,2*%
%TO.N,GND*%
X189230000Y-63500000D03*
%TD*%
%TO.P,R11,1*%
%TO.N,Net-(P2-Pad2)*%
X157480000Y-81280000D03*
%TO.P,R11,2*%
%TO.N,Net-(D2-Pad1)*%
X157480000Y-91440000D03*
%TD*%
%TO.P,R12,1*%
%TO.N,Net-(D2-Pad1)*%
X204470000Y-96520000D03*
%TO.P,R12,2*%
%TO.N,GND*%
X194310000Y-96520000D03*
%TD*%
%TO.P,R13,1*%
%TO.N,Net-(P2-Pad3)*%
X161290000Y-76200000D03*
%TO.P,R13,2*%
%TO.N,Net-(D3-Pad1)*%
X161290000Y-86360000D03*
%TD*%
%TO.P,R14,1*%
%TO.N,Net-(D3-Pad1)*%
X204470000Y-91440000D03*
%TO.P,R14,2*%
%TO.N,GND*%
X194310000Y-91440000D03*
%TD*%
D20*
%TO.N,+5V*%
X186690000Y-91440000D02*
X184150000Y-93980000D01*
X184150000Y-93980000D02*
X173990000Y-93980000D01*
X173992540Y-93980000D02*
X171450000Y-91437460D01*
X171450000Y-91440000D02*
X166370000Y-96520000D01*
X166370000Y-96520000D02*
X161290000Y-96520000D01*
D21*
X173990000Y-93980000D02*
X173992540Y-93980000D01*
D20*
X173990000Y-97790000D02*
X175260000Y-99060000D01*
X175260000Y-99060000D02*
X184150000Y-99060000D01*
X184150000Y-99060000D02*
X186690000Y-101600000D01*
D21*
X186690000Y-91437460D02*
X186690000Y-91440000D01*
X171450000Y-91437460D02*
X171450000Y-91440000D01*
D20*
X173990000Y-93980000D02*
X173990000Y-97790000D01*
%TO.N,Net-(P1-Pad1)*%
X154899360Y-83779360D02*
X152400000Y-81280000D01*
X153670000Y-82550000D02*
X152400000Y-81280000D01*
D22*
X166329360Y-83779360D02*
X163830000Y-81280000D01*
X163830000Y-81280000D02*
X163830000Y-64808100D01*
X163830000Y-64808100D02*
X159941260Y-60919360D01*
X157439360Y-60919360D02*
X154940000Y-58420000D01*
X180340000Y-83779360D02*
X168910000Y-83779360D01*
X191770000Y-83779360D02*
X180340000Y-83779360D01*
X168910000Y-83779360D02*
X166329360Y-83779360D01*
D20*
X153670000Y-86360000D02*
X153670000Y-82550000D01*
D22*
X159941260Y-60919360D02*
X157439360Y-60919360D01*
D20*
X168910000Y-83779360D02*
X154899360Y-83779360D01*
D22*
X203200000Y-83779360D02*
X191770000Y-83779360D01*
D20*
%TO.N,Net-(Q1-PadG)*%
X166370000Y-60960000D02*
X165100000Y-59690000D01*
X170180000Y-59690000D02*
X172720000Y-57150000D01*
X172720000Y-57150000D02*
X184150000Y-57150000D01*
X184150000Y-57150000D02*
X185420000Y-55880000D01*
X185420000Y-55880000D02*
X191770000Y-55880000D01*
X191770000Y-55880000D02*
X193040000Y-55880000D01*
X166370000Y-69850000D02*
X166370000Y-60960000D01*
X170180000Y-59690000D02*
X165100000Y-59690000D01*
X194310000Y-54610000D02*
X193040000Y-55880000D01*
X194310000Y-53340000D02*
X194310000Y-54610000D01*
D22*
%TO.N,Net-(Q1-PadD)*%
X168910000Y-78780640D02*
X168910000Y-69850000D01*
D20*
%TO.N,Net-(Q2-PadG)*%
X177800000Y-62230000D02*
X180340000Y-59690000D01*
X184150000Y-59690000D02*
X186690000Y-57150000D01*
X186690000Y-57150000D02*
X195580000Y-57150000D01*
X195580000Y-57150000D02*
X196850000Y-55880000D01*
X196850000Y-55880000D02*
X196850000Y-53340000D01*
X180340000Y-59690000D02*
X184150000Y-59690000D01*
X177800000Y-69850000D02*
X177800000Y-62230000D01*
D22*
%TO.N,Net-(Q2-PadD)*%
X180340000Y-78780640D02*
X180340000Y-69850000D01*
D20*
%TO.N,Net-(Q3-PadG)*%
X199390000Y-59690000D02*
X193040000Y-66040000D01*
X193040000Y-66040000D02*
X190500000Y-66040000D01*
X190500000Y-66040000D02*
X189230000Y-67310000D01*
X189230000Y-67310000D02*
X189230000Y-69850000D01*
X199390000Y-59690000D02*
X199390000Y-53340000D01*
X199390000Y-59690000D02*
X199390000Y-59690000D01*
D22*
%TO.N,Net-(Q3-PadD)*%
X191770000Y-78780640D02*
X191770000Y-69850000D01*
D20*
%TO.N,Net-(Q4-PadG)*%
X200660000Y-64770000D02*
X201930000Y-63500000D01*
X201930000Y-63500000D02*
X201930000Y-53340000D01*
X199390000Y-63500000D02*
X201930000Y-63500000D01*
X200660000Y-69850000D02*
X200660000Y-64770000D01*
D22*
%TO.N,Net-(Q4-PadD)*%
X203200000Y-78780640D02*
X203200000Y-69850000D01*
D20*
%TO.N,Net-(D1-Pad1)*%
X184150000Y-96520000D02*
X186690000Y-99060000D01*
X186690000Y-99060000D02*
X196850000Y-99060000D01*
X196850000Y-99060000D02*
X199390000Y-101600000D01*
X156210000Y-96520000D02*
X158750000Y-99060000D01*
X158750000Y-99060000D02*
X168910000Y-99060000D01*
X168910000Y-99060000D02*
X171450000Y-96520000D01*
X153670000Y-96520000D02*
X156210000Y-96520000D01*
X176530000Y-96520000D02*
X184150000Y-96520000D01*
%TO.N,Net-(D3-Pad1)*%
X162560000Y-86360000D02*
X165100000Y-88900000D01*
X165100000Y-88900000D02*
X173992540Y-88900000D01*
X173992540Y-88900000D02*
X176530000Y-91437460D01*
X179072540Y-91437460D02*
X181610000Y-88900000D01*
X181610000Y-88900000D02*
X201930000Y-88900000D01*
X203200000Y-90170000D02*
X204470000Y-91440000D01*
X161290000Y-86360000D02*
X162560000Y-86360000D01*
X201930000Y-88900000D02*
X203200000Y-90170000D01*
X176530000Y-91437460D02*
X179072540Y-91437460D01*
D21*
%TO.N,Net-(D2-Pad1)*%
X161287460Y-91440000D02*
X161290000Y-91437460D01*
D20*
X157480000Y-91440000D02*
X161287460Y-91440000D01*
X204470000Y-96520000D02*
X204470000Y-101600000D01*
%TO.N,Net-(P2-Pad2)*%
X154940000Y-78740000D02*
X152400000Y-78740000D01*
X157480000Y-81280000D02*
X154940000Y-78740000D01*
%TO.N,Net-(P2-Pad3)*%
X161290000Y-76200000D02*
X152400000Y-76200000D01*
%TD*%
M02*
