%TF.GenerationSoftware,KiCad,Pcbnew,(6.0.8)*%
%TF.CreationDate,2022-10-08T06:19:35+02:00*%
%TF.ProjectId,BatteryTester,42617474-6572-4795-9465-737465722e6b,rev?*%
%TF.SameCoordinates,Original*%
%TF.FileFunction,Legend,Top*%
%TF.FilePolarity,Positive*%
%FSLAX46Y46*%
G04 Gerber Fmt 4.6, Leading zero omitted, Abs format (unit mm)*
G04 Created by KiCad (PCBNEW (6.0.8)) date 2022-10-08 06:19:35*
%MOMM*%
%LPD*%
G01*
G04 APERTURE LIST*
%ADD10C,0.150000*%
%ADD11C,1.998980*%
%ADD12R,1.998980X1.998980*%
%ADD13C,3.000000*%
%ADD14O,1.501140X2.499360*%
%ADD15O,1.998980X2.999740*%
%ADD16C,3.175000*%
%ADD17O,1.524000X2.540000*%
%ADD18C,1.524000*%
%ADD19O,1.998980X1.998980*%
G04 APERTURE END LIST*
D10*
%TO.C,D1*%
X163091904Y-99512380D02*
X163091904Y-98512380D01*
X163330000Y-98512380D01*
X163472857Y-98560000D01*
X163568095Y-98655238D01*
X163615714Y-98750476D01*
X163663333Y-98940952D01*
X163663333Y-99083809D01*
X163615714Y-99274285D01*
X163568095Y-99369523D01*
X163472857Y-99464761D01*
X163330000Y-99512380D01*
X163091904Y-99512380D01*
X164615714Y-99512380D02*
X164044285Y-99512380D01*
X164330000Y-99512380D02*
X164330000Y-98512380D01*
X164234761Y-98655238D01*
X164139523Y-98750476D01*
X164044285Y-98798095D01*
%TO.C,P1*%
X161742380Y-55348095D02*
X160742380Y-55348095D01*
X160742380Y-54967142D01*
X160790000Y-54871904D01*
X160837619Y-54824285D01*
X160932857Y-54776666D01*
X161075714Y-54776666D01*
X161170952Y-54824285D01*
X161218571Y-54871904D01*
X161266190Y-54967142D01*
X161266190Y-55348095D01*
X161742380Y-53824285D02*
X161742380Y-54395714D01*
X161742380Y-54110000D02*
X160742380Y-54110000D01*
X160885238Y-54205238D01*
X160980476Y-54300476D01*
X161028095Y-54395714D01*
%TO.C,Q1*%
X168814761Y-65317619D02*
X168719523Y-65270000D01*
X168624285Y-65174761D01*
X168481428Y-65031904D01*
X168386190Y-64984285D01*
X168290952Y-64984285D01*
X168338571Y-65222380D02*
X168243333Y-65174761D01*
X168148095Y-65079523D01*
X168100476Y-64889047D01*
X168100476Y-64555714D01*
X168148095Y-64365238D01*
X168243333Y-64270000D01*
X168338571Y-64222380D01*
X168529047Y-64222380D01*
X168624285Y-64270000D01*
X168719523Y-64365238D01*
X168767142Y-64555714D01*
X168767142Y-64889047D01*
X168719523Y-65079523D01*
X168624285Y-65174761D01*
X168529047Y-65222380D01*
X168338571Y-65222380D01*
X169719523Y-65222380D02*
X169148095Y-65222380D01*
X169433809Y-65222380D02*
X169433809Y-64222380D01*
X169338571Y-64365238D01*
X169243333Y-64460476D01*
X169148095Y-64508095D01*
X170021285Y-68984761D02*
X170164142Y-69032380D01*
X170402238Y-69032380D01*
X170497476Y-68984761D01*
X170545095Y-68937142D01*
X170592714Y-68841904D01*
X170592714Y-68746666D01*
X170545095Y-68651428D01*
X170497476Y-68603809D01*
X170402238Y-68556190D01*
X170211761Y-68508571D01*
X170116523Y-68460952D01*
X170068904Y-68413333D01*
X170021285Y-68318095D01*
X170021285Y-68222857D01*
X170068904Y-68127619D01*
X170116523Y-68080000D01*
X170211761Y-68032380D01*
X170449857Y-68032380D01*
X170592714Y-68080000D01*
X167505095Y-69032380D02*
X167505095Y-68032380D01*
X167743190Y-68032380D01*
X167886047Y-68080000D01*
X167981285Y-68175238D01*
X168028904Y-68270476D01*
X168076523Y-68460952D01*
X168076523Y-68603809D01*
X168028904Y-68794285D01*
X167981285Y-68889523D01*
X167886047Y-68984761D01*
X167743190Y-69032380D01*
X167505095Y-69032380D01*
X165361904Y-68080000D02*
X165266666Y-68032380D01*
X165123809Y-68032380D01*
X164980952Y-68080000D01*
X164885714Y-68175238D01*
X164838095Y-68270476D01*
X164790476Y-68460952D01*
X164790476Y-68603809D01*
X164838095Y-68794285D01*
X164885714Y-68889523D01*
X164980952Y-68984761D01*
X165123809Y-69032380D01*
X165219047Y-69032380D01*
X165361904Y-68984761D01*
X165409523Y-68937142D01*
X165409523Y-68603809D01*
X165219047Y-68603809D01*
%TO.C,Q2*%
X180244761Y-65317619D02*
X180149523Y-65270000D01*
X180054285Y-65174761D01*
X179911428Y-65031904D01*
X179816190Y-64984285D01*
X179720952Y-64984285D01*
X179768571Y-65222380D02*
X179673333Y-65174761D01*
X179578095Y-65079523D01*
X179530476Y-64889047D01*
X179530476Y-64555714D01*
X179578095Y-64365238D01*
X179673333Y-64270000D01*
X179768571Y-64222380D01*
X179959047Y-64222380D01*
X180054285Y-64270000D01*
X180149523Y-64365238D01*
X180197142Y-64555714D01*
X180197142Y-64889047D01*
X180149523Y-65079523D01*
X180054285Y-65174761D01*
X179959047Y-65222380D01*
X179768571Y-65222380D01*
X180578095Y-64317619D02*
X180625714Y-64270000D01*
X180720952Y-64222380D01*
X180959047Y-64222380D01*
X181054285Y-64270000D01*
X181101904Y-64317619D01*
X181149523Y-64412857D01*
X181149523Y-64508095D01*
X181101904Y-64650952D01*
X180530476Y-65222380D01*
X181149523Y-65222380D01*
X181451285Y-68984761D02*
X181594142Y-69032380D01*
X181832238Y-69032380D01*
X181927476Y-68984761D01*
X181975095Y-68937142D01*
X182022714Y-68841904D01*
X182022714Y-68746666D01*
X181975095Y-68651428D01*
X181927476Y-68603809D01*
X181832238Y-68556190D01*
X181641761Y-68508571D01*
X181546523Y-68460952D01*
X181498904Y-68413333D01*
X181451285Y-68318095D01*
X181451285Y-68222857D01*
X181498904Y-68127619D01*
X181546523Y-68080000D01*
X181641761Y-68032380D01*
X181879857Y-68032380D01*
X182022714Y-68080000D01*
X178935095Y-69032380D02*
X178935095Y-68032380D01*
X179173190Y-68032380D01*
X179316047Y-68080000D01*
X179411285Y-68175238D01*
X179458904Y-68270476D01*
X179506523Y-68460952D01*
X179506523Y-68603809D01*
X179458904Y-68794285D01*
X179411285Y-68889523D01*
X179316047Y-68984761D01*
X179173190Y-69032380D01*
X178935095Y-69032380D01*
X176791904Y-68080000D02*
X176696666Y-68032380D01*
X176553809Y-68032380D01*
X176410952Y-68080000D01*
X176315714Y-68175238D01*
X176268095Y-68270476D01*
X176220476Y-68460952D01*
X176220476Y-68603809D01*
X176268095Y-68794285D01*
X176315714Y-68889523D01*
X176410952Y-68984761D01*
X176553809Y-69032380D01*
X176649047Y-69032380D01*
X176791904Y-68984761D01*
X176839523Y-68937142D01*
X176839523Y-68603809D01*
X176649047Y-68603809D01*
%TO.C,Q3*%
X191674761Y-65317619D02*
X191579523Y-65270000D01*
X191484285Y-65174761D01*
X191341428Y-65031904D01*
X191246190Y-64984285D01*
X191150952Y-64984285D01*
X191198571Y-65222380D02*
X191103333Y-65174761D01*
X191008095Y-65079523D01*
X190960476Y-64889047D01*
X190960476Y-64555714D01*
X191008095Y-64365238D01*
X191103333Y-64270000D01*
X191198571Y-64222380D01*
X191389047Y-64222380D01*
X191484285Y-64270000D01*
X191579523Y-64365238D01*
X191627142Y-64555714D01*
X191627142Y-64889047D01*
X191579523Y-65079523D01*
X191484285Y-65174761D01*
X191389047Y-65222380D01*
X191198571Y-65222380D01*
X191960476Y-64222380D02*
X192579523Y-64222380D01*
X192246190Y-64603333D01*
X192389047Y-64603333D01*
X192484285Y-64650952D01*
X192531904Y-64698571D01*
X192579523Y-64793809D01*
X192579523Y-65031904D01*
X192531904Y-65127142D01*
X192484285Y-65174761D01*
X192389047Y-65222380D01*
X192103333Y-65222380D01*
X192008095Y-65174761D01*
X191960476Y-65127142D01*
X190365095Y-69032380D02*
X190365095Y-68032380D01*
X190603190Y-68032380D01*
X190746047Y-68080000D01*
X190841285Y-68175238D01*
X190888904Y-68270476D01*
X190936523Y-68460952D01*
X190936523Y-68603809D01*
X190888904Y-68794285D01*
X190841285Y-68889523D01*
X190746047Y-68984761D01*
X190603190Y-69032380D01*
X190365095Y-69032380D01*
X192881285Y-68984761D02*
X193024142Y-69032380D01*
X193262238Y-69032380D01*
X193357476Y-68984761D01*
X193405095Y-68937142D01*
X193452714Y-68841904D01*
X193452714Y-68746666D01*
X193405095Y-68651428D01*
X193357476Y-68603809D01*
X193262238Y-68556190D01*
X193071761Y-68508571D01*
X192976523Y-68460952D01*
X192928904Y-68413333D01*
X192881285Y-68318095D01*
X192881285Y-68222857D01*
X192928904Y-68127619D01*
X192976523Y-68080000D01*
X193071761Y-68032380D01*
X193309857Y-68032380D01*
X193452714Y-68080000D01*
X188221904Y-68080000D02*
X188126666Y-68032380D01*
X187983809Y-68032380D01*
X187840952Y-68080000D01*
X187745714Y-68175238D01*
X187698095Y-68270476D01*
X187650476Y-68460952D01*
X187650476Y-68603809D01*
X187698095Y-68794285D01*
X187745714Y-68889523D01*
X187840952Y-68984761D01*
X187983809Y-69032380D01*
X188079047Y-69032380D01*
X188221904Y-68984761D01*
X188269523Y-68937142D01*
X188269523Y-68603809D01*
X188079047Y-68603809D01*
%TO.C,Q4*%
X203104761Y-65317619D02*
X203009523Y-65270000D01*
X202914285Y-65174761D01*
X202771428Y-65031904D01*
X202676190Y-64984285D01*
X202580952Y-64984285D01*
X202628571Y-65222380D02*
X202533333Y-65174761D01*
X202438095Y-65079523D01*
X202390476Y-64889047D01*
X202390476Y-64555714D01*
X202438095Y-64365238D01*
X202533333Y-64270000D01*
X202628571Y-64222380D01*
X202819047Y-64222380D01*
X202914285Y-64270000D01*
X203009523Y-64365238D01*
X203057142Y-64555714D01*
X203057142Y-64889047D01*
X203009523Y-65079523D01*
X202914285Y-65174761D01*
X202819047Y-65222380D01*
X202628571Y-65222380D01*
X203914285Y-64555714D02*
X203914285Y-65222380D01*
X203676190Y-64174761D02*
X203438095Y-64889047D01*
X204057142Y-64889047D01*
X204311285Y-68984761D02*
X204454142Y-69032380D01*
X204692238Y-69032380D01*
X204787476Y-68984761D01*
X204835095Y-68937142D01*
X204882714Y-68841904D01*
X204882714Y-68746666D01*
X204835095Y-68651428D01*
X204787476Y-68603809D01*
X204692238Y-68556190D01*
X204501761Y-68508571D01*
X204406523Y-68460952D01*
X204358904Y-68413333D01*
X204311285Y-68318095D01*
X204311285Y-68222857D01*
X204358904Y-68127619D01*
X204406523Y-68080000D01*
X204501761Y-68032380D01*
X204739857Y-68032380D01*
X204882714Y-68080000D01*
X199651904Y-68080000D02*
X199556666Y-68032380D01*
X199413809Y-68032380D01*
X199270952Y-68080000D01*
X199175714Y-68175238D01*
X199128095Y-68270476D01*
X199080476Y-68460952D01*
X199080476Y-68603809D01*
X199128095Y-68794285D01*
X199175714Y-68889523D01*
X199270952Y-68984761D01*
X199413809Y-69032380D01*
X199509047Y-69032380D01*
X199651904Y-68984761D01*
X199699523Y-68937142D01*
X199699523Y-68603809D01*
X199509047Y-68603809D01*
X201795095Y-69032380D02*
X201795095Y-68032380D01*
X202033190Y-68032380D01*
X202176047Y-68080000D01*
X202271285Y-68175238D01*
X202318904Y-68270476D01*
X202366523Y-68460952D01*
X202366523Y-68603809D01*
X202318904Y-68794285D01*
X202271285Y-68889523D01*
X202176047Y-68984761D01*
X202033190Y-69032380D01*
X201795095Y-69032380D01*
%TO.C,R4*%
X173172380Y-77636666D02*
X172696190Y-77970000D01*
X173172380Y-78208095D02*
X172172380Y-78208095D01*
X172172380Y-77827142D01*
X172220000Y-77731904D01*
X172267619Y-77684285D01*
X172362857Y-77636666D01*
X172505714Y-77636666D01*
X172600952Y-77684285D01*
X172648571Y-77731904D01*
X172696190Y-77827142D01*
X172696190Y-78208095D01*
X172505714Y-76779523D02*
X173172380Y-76779523D01*
X172124761Y-77017619D02*
X172839047Y-77255714D01*
X172839047Y-76636666D01*
%TO.C,R6*%
X184602380Y-77636666D02*
X184126190Y-77970000D01*
X184602380Y-78208095D02*
X183602380Y-78208095D01*
X183602380Y-77827142D01*
X183650000Y-77731904D01*
X183697619Y-77684285D01*
X183792857Y-77636666D01*
X183935714Y-77636666D01*
X184030952Y-77684285D01*
X184078571Y-77731904D01*
X184126190Y-77827142D01*
X184126190Y-78208095D01*
X183602380Y-76779523D02*
X183602380Y-76970000D01*
X183650000Y-77065238D01*
X183697619Y-77112857D01*
X183840476Y-77208095D01*
X184030952Y-77255714D01*
X184411904Y-77255714D01*
X184507142Y-77208095D01*
X184554761Y-77160476D01*
X184602380Y-77065238D01*
X184602380Y-76874761D01*
X184554761Y-76779523D01*
X184507142Y-76731904D01*
X184411904Y-76684285D01*
X184173809Y-76684285D01*
X184078571Y-76731904D01*
X184030952Y-76779523D01*
X183983333Y-76874761D01*
X183983333Y-77065238D01*
X184030952Y-77160476D01*
X184078571Y-77208095D01*
X184173809Y-77255714D01*
%TO.C,R8*%
X196032380Y-77636666D02*
X195556190Y-77970000D01*
X196032380Y-78208095D02*
X195032380Y-78208095D01*
X195032380Y-77827142D01*
X195080000Y-77731904D01*
X195127619Y-77684285D01*
X195222857Y-77636666D01*
X195365714Y-77636666D01*
X195460952Y-77684285D01*
X195508571Y-77731904D01*
X195556190Y-77827142D01*
X195556190Y-78208095D01*
X195460952Y-77065238D02*
X195413333Y-77160476D01*
X195365714Y-77208095D01*
X195270476Y-77255714D01*
X195222857Y-77255714D01*
X195127619Y-77208095D01*
X195080000Y-77160476D01*
X195032380Y-77065238D01*
X195032380Y-76874761D01*
X195080000Y-76779523D01*
X195127619Y-76731904D01*
X195222857Y-76684285D01*
X195270476Y-76684285D01*
X195365714Y-76731904D01*
X195413333Y-76779523D01*
X195460952Y-76874761D01*
X195460952Y-77065238D01*
X195508571Y-77160476D01*
X195556190Y-77208095D01*
X195651428Y-77255714D01*
X195841904Y-77255714D01*
X195937142Y-77208095D01*
X195984761Y-77160476D01*
X196032380Y-77065238D01*
X196032380Y-76874761D01*
X195984761Y-76779523D01*
X195937142Y-76731904D01*
X195841904Y-76684285D01*
X195651428Y-76684285D01*
X195556190Y-76731904D01*
X195508571Y-76779523D01*
X195460952Y-76874761D01*
%TO.C,R10*%
X207462380Y-79382857D02*
X206986190Y-79716190D01*
X207462380Y-79954285D02*
X206462380Y-79954285D01*
X206462380Y-79573333D01*
X206510000Y-79478095D01*
X206557619Y-79430476D01*
X206652857Y-79382857D01*
X206795714Y-79382857D01*
X206890952Y-79430476D01*
X206938571Y-79478095D01*
X206986190Y-79573333D01*
X206986190Y-79954285D01*
X207462380Y-78430476D02*
X207462380Y-79001904D01*
X207462380Y-78716190D02*
X206462380Y-78716190D01*
X206605238Y-78811428D01*
X206700476Y-78906666D01*
X206748095Y-79001904D01*
X206462380Y-77811428D02*
X206462380Y-77716190D01*
X206510000Y-77620952D01*
X206557619Y-77573333D01*
X206652857Y-77525714D01*
X206843333Y-77478095D01*
X207081428Y-77478095D01*
X207271904Y-77525714D01*
X207367142Y-77573333D01*
X207414761Y-77620952D01*
X207462380Y-77716190D01*
X207462380Y-77811428D01*
X207414761Y-77906666D01*
X207367142Y-77954285D01*
X207271904Y-78001904D01*
X207081428Y-78049523D01*
X206843333Y-78049523D01*
X206652857Y-78001904D01*
X206557619Y-77954285D01*
X206510000Y-77906666D01*
X206462380Y-77811428D01*
%TO.C,D2*%
X163091904Y-94432380D02*
X163091904Y-93432380D01*
X163330000Y-93432380D01*
X163472857Y-93480000D01*
X163568095Y-93575238D01*
X163615714Y-93670476D01*
X163663333Y-93860952D01*
X163663333Y-94003809D01*
X163615714Y-94194285D01*
X163568095Y-94289523D01*
X163472857Y-94384761D01*
X163330000Y-94432380D01*
X163091904Y-94432380D01*
X164044285Y-93527619D02*
X164091904Y-93480000D01*
X164187142Y-93432380D01*
X164425238Y-93432380D01*
X164520476Y-93480000D01*
X164568095Y-93527619D01*
X164615714Y-93622857D01*
X164615714Y-93718095D01*
X164568095Y-93860952D01*
X163996666Y-94432380D01*
X164615714Y-94432380D01*
%TO.C,D3*%
X178331904Y-94432380D02*
X178331904Y-93432380D01*
X178570000Y-93432380D01*
X178712857Y-93480000D01*
X178808095Y-93575238D01*
X178855714Y-93670476D01*
X178903333Y-93860952D01*
X178903333Y-94003809D01*
X178855714Y-94194285D01*
X178808095Y-94289523D01*
X178712857Y-94384761D01*
X178570000Y-94432380D01*
X178331904Y-94432380D01*
X179236666Y-93432380D02*
X179855714Y-93432380D01*
X179522380Y-93813333D01*
X179665238Y-93813333D01*
X179760476Y-93860952D01*
X179808095Y-93908571D01*
X179855714Y-94003809D01*
X179855714Y-94241904D01*
X179808095Y-94337142D01*
X179760476Y-94384761D01*
X179665238Y-94432380D01*
X179379523Y-94432380D01*
X179284285Y-94384761D01*
X179236666Y-94337142D01*
%TO.C,P2*%
X152852380Y-70588095D02*
X151852380Y-70588095D01*
X151852380Y-70207142D01*
X151900000Y-70111904D01*
X151947619Y-70064285D01*
X152042857Y-70016666D01*
X152185714Y-70016666D01*
X152280952Y-70064285D01*
X152328571Y-70111904D01*
X152376190Y-70207142D01*
X152376190Y-70588095D01*
X151947619Y-69635714D02*
X151900000Y-69588095D01*
X151852380Y-69492857D01*
X151852380Y-69254761D01*
X151900000Y-69159523D01*
X151947619Y-69111904D01*
X152042857Y-69064285D01*
X152138095Y-69064285D01*
X152280952Y-69111904D01*
X152852380Y-69683333D01*
X152852380Y-69064285D01*
%TO.C,R1*%
X154122380Y-99226666D02*
X153646190Y-99560000D01*
X154122380Y-99798095D02*
X153122380Y-99798095D01*
X153122380Y-99417142D01*
X153170000Y-99321904D01*
X153217619Y-99274285D01*
X153312857Y-99226666D01*
X153455714Y-99226666D01*
X153550952Y-99274285D01*
X153598571Y-99321904D01*
X153646190Y-99417142D01*
X153646190Y-99798095D01*
X154122380Y-98274285D02*
X154122380Y-98845714D01*
X154122380Y-98560000D02*
X153122380Y-98560000D01*
X153265238Y-98655238D01*
X153360476Y-98750476D01*
X153408095Y-98845714D01*
%TO.C,R2*%
X189063333Y-96972380D02*
X188730000Y-96496190D01*
X188491904Y-96972380D02*
X188491904Y-95972380D01*
X188872857Y-95972380D01*
X188968095Y-96020000D01*
X189015714Y-96067619D01*
X189063333Y-96162857D01*
X189063333Y-96305714D01*
X189015714Y-96400952D01*
X188968095Y-96448571D01*
X188872857Y-96496190D01*
X188491904Y-96496190D01*
X189444285Y-96067619D02*
X189491904Y-96020000D01*
X189587142Y-95972380D01*
X189825238Y-95972380D01*
X189920476Y-96020000D01*
X189968095Y-96067619D01*
X190015714Y-96162857D01*
X190015714Y-96258095D01*
X189968095Y-96400952D01*
X189396666Y-96972380D01*
X190015714Y-96972380D01*
%TO.C,R3*%
X170262253Y-56642260D02*
X169928920Y-56166070D01*
X169690824Y-56642260D02*
X169690824Y-55642260D01*
X170071777Y-55642260D01*
X170167015Y-55689880D01*
X170214634Y-55737499D01*
X170262253Y-55832737D01*
X170262253Y-55975594D01*
X170214634Y-56070832D01*
X170167015Y-56118451D01*
X170071777Y-56166070D01*
X169690824Y-56166070D01*
X170595586Y-55642260D02*
X171214634Y-55642260D01*
X170881300Y-56023213D01*
X171024158Y-56023213D01*
X171119396Y-56070832D01*
X171167015Y-56118451D01*
X171214634Y-56213689D01*
X171214634Y-56451784D01*
X171167015Y-56547022D01*
X171119396Y-56594641D01*
X171024158Y-56642260D01*
X170738443Y-56642260D01*
X170643205Y-56594641D01*
X170595586Y-56547022D01*
%TO.C,R5*%
X185502253Y-56642260D02*
X185168920Y-56166070D01*
X184930824Y-56642260D02*
X184930824Y-55642260D01*
X185311777Y-55642260D01*
X185407015Y-55689880D01*
X185454634Y-55737499D01*
X185502253Y-55832737D01*
X185502253Y-55975594D01*
X185454634Y-56070832D01*
X185407015Y-56118451D01*
X185311777Y-56166070D01*
X184930824Y-56166070D01*
X186407015Y-55642260D02*
X185930824Y-55642260D01*
X185883205Y-56118451D01*
X185930824Y-56070832D01*
X186026062Y-56023213D01*
X186264158Y-56023213D01*
X186359396Y-56070832D01*
X186407015Y-56118451D01*
X186454634Y-56213689D01*
X186454634Y-56451784D01*
X186407015Y-56547022D01*
X186359396Y-56594641D01*
X186264158Y-56642260D01*
X186026062Y-56642260D01*
X185930824Y-56594641D01*
X185883205Y-56547022D01*
%TO.C,R7*%
X204552253Y-56642260D02*
X204218920Y-56166070D01*
X203980824Y-56642260D02*
X203980824Y-55642260D01*
X204361777Y-55642260D01*
X204457015Y-55689880D01*
X204504634Y-55737499D01*
X204552253Y-55832737D01*
X204552253Y-55975594D01*
X204504634Y-56070832D01*
X204457015Y-56118451D01*
X204361777Y-56166070D01*
X203980824Y-56166070D01*
X204885586Y-55642260D02*
X205552253Y-55642260D01*
X205123681Y-56642260D01*
%TO.C,R9*%
X193894413Y-67452500D02*
X193561080Y-66976310D01*
X193322984Y-67452500D02*
X193322984Y-66452500D01*
X193703937Y-66452500D01*
X193799175Y-66500120D01*
X193846794Y-66547739D01*
X193894413Y-66642977D01*
X193894413Y-66785834D01*
X193846794Y-66881072D01*
X193799175Y-66928691D01*
X193703937Y-66976310D01*
X193322984Y-66976310D01*
X194370603Y-67452500D02*
X194561080Y-67452500D01*
X194656318Y-67404881D01*
X194703937Y-67357262D01*
X194799175Y-67214405D01*
X194846794Y-67023929D01*
X194846794Y-66642977D01*
X194799175Y-66547739D01*
X194751556Y-66500120D01*
X194656318Y-66452500D01*
X194465841Y-66452500D01*
X194370603Y-66500120D01*
X194322984Y-66547739D01*
X194275365Y-66642977D01*
X194275365Y-66881072D01*
X194322984Y-66976310D01*
X194370603Y-67023929D01*
X194465841Y-67071548D01*
X194656318Y-67071548D01*
X194751556Y-67023929D01*
X194799175Y-66976310D01*
X194846794Y-66881072D01*
%TO.C,R11*%
X157932380Y-94622857D02*
X157456190Y-94956190D01*
X157932380Y-95194285D02*
X156932380Y-95194285D01*
X156932380Y-94813333D01*
X156980000Y-94718095D01*
X157027619Y-94670476D01*
X157122857Y-94622857D01*
X157265714Y-94622857D01*
X157360952Y-94670476D01*
X157408571Y-94718095D01*
X157456190Y-94813333D01*
X157456190Y-95194285D01*
X157932380Y-93670476D02*
X157932380Y-94241904D01*
X157932380Y-93956190D02*
X156932380Y-93956190D01*
X157075238Y-94051428D01*
X157170476Y-94146666D01*
X157218095Y-94241904D01*
X157932380Y-92718095D02*
X157932380Y-93289523D01*
X157932380Y-93003809D02*
X156932380Y-93003809D01*
X157075238Y-93099047D01*
X157170476Y-93194285D01*
X157218095Y-93289523D01*
%TO.C,R12*%
X207637142Y-96972380D02*
X207303809Y-96496190D01*
X207065714Y-96972380D02*
X207065714Y-95972380D01*
X207446666Y-95972380D01*
X207541904Y-96020000D01*
X207589523Y-96067619D01*
X207637142Y-96162857D01*
X207637142Y-96305714D01*
X207589523Y-96400952D01*
X207541904Y-96448571D01*
X207446666Y-96496190D01*
X207065714Y-96496190D01*
X208589523Y-96972380D02*
X208018095Y-96972380D01*
X208303809Y-96972380D02*
X208303809Y-95972380D01*
X208208571Y-96115238D01*
X208113333Y-96210476D01*
X208018095Y-96258095D01*
X208970476Y-96067619D02*
X209018095Y-96020000D01*
X209113333Y-95972380D01*
X209351428Y-95972380D01*
X209446666Y-96020000D01*
X209494285Y-96067619D01*
X209541904Y-96162857D01*
X209541904Y-96258095D01*
X209494285Y-96400952D01*
X208922857Y-96972380D01*
X209541904Y-96972380D01*
%TO.C,R13*%
X161742380Y-73032857D02*
X161266190Y-73366190D01*
X161742380Y-73604285D02*
X160742380Y-73604285D01*
X160742380Y-73223333D01*
X160790000Y-73128095D01*
X160837619Y-73080476D01*
X160932857Y-73032857D01*
X161075714Y-73032857D01*
X161170952Y-73080476D01*
X161218571Y-73128095D01*
X161266190Y-73223333D01*
X161266190Y-73604285D01*
X161742380Y-72080476D02*
X161742380Y-72651904D01*
X161742380Y-72366190D02*
X160742380Y-72366190D01*
X160885238Y-72461428D01*
X160980476Y-72556666D01*
X161028095Y-72651904D01*
X160742380Y-71747142D02*
X160742380Y-71128095D01*
X161123333Y-71461428D01*
X161123333Y-71318571D01*
X161170952Y-71223333D01*
X161218571Y-71175714D01*
X161313809Y-71128095D01*
X161551904Y-71128095D01*
X161647142Y-71175714D01*
X161694761Y-71223333D01*
X161742380Y-71318571D01*
X161742380Y-71604285D01*
X161694761Y-71699523D01*
X161647142Y-71747142D01*
%TO.C,R14*%
X207637142Y-91892380D02*
X207303809Y-91416190D01*
X207065714Y-91892380D02*
X207065714Y-90892380D01*
X207446666Y-90892380D01*
X207541904Y-90940000D01*
X207589523Y-90987619D01*
X207637142Y-91082857D01*
X207637142Y-91225714D01*
X207589523Y-91320952D01*
X207541904Y-91368571D01*
X207446666Y-91416190D01*
X207065714Y-91416190D01*
X208589523Y-91892380D02*
X208018095Y-91892380D01*
X208303809Y-91892380D02*
X208303809Y-90892380D01*
X208208571Y-91035238D01*
X208113333Y-91130476D01*
X208018095Y-91178095D01*
X209446666Y-91225714D02*
X209446666Y-91892380D01*
X209208571Y-90844761D02*
X208970476Y-91559047D01*
X209589523Y-91559047D01*
%TO.C,D1*%
X163830000Y-97790000D02*
X165100000Y-95250000D01*
X168910000Y-95250000D02*
X163830000Y-95250000D01*
X164338000Y-97790000D02*
X164338000Y-95250000D01*
X163830000Y-97790000D02*
X168910000Y-97790000D01*
X164084000Y-96520000D02*
X162814000Y-96520000D01*
X163830000Y-95250000D02*
X163830000Y-97790000D01*
X168910000Y-97790000D02*
X168910000Y-95250000D01*
X164465000Y-97790000D02*
X164465000Y-95250000D01*
X168910000Y-96520000D02*
X169926000Y-96520000D01*
X165100000Y-97790000D02*
X165100000Y-95250000D01*
X165100000Y-97790000D02*
X163830000Y-95250000D01*
X164592000Y-97790000D02*
X164592000Y-95250000D01*
X164084000Y-97790000D02*
X164084000Y-95250000D01*
X164846000Y-97790000D02*
X164846000Y-95250000D01*
%TO.C,P1*%
X163240720Y-67169040D02*
X163240720Y-62170320D01*
X157139640Y-62619900D02*
X157139640Y-66620400D01*
X148239480Y-57170320D02*
X163240720Y-57170320D01*
X149740620Y-57170320D02*
X149740620Y-57670700D01*
X157139640Y-57619900D02*
X156540200Y-57619900D01*
X148239480Y-67169040D02*
X148239480Y-62170320D01*
X163240720Y-62169040D02*
X148239480Y-62169040D01*
X157139640Y-61620400D02*
X152740360Y-61620400D01*
X155338780Y-66620400D02*
X155338780Y-65220860D01*
X149740620Y-62170320D02*
X149740620Y-62670700D01*
X152740360Y-66620400D02*
X152740360Y-62619900D01*
X157139640Y-66620400D02*
X152740360Y-66620400D01*
X157139640Y-57619900D02*
X157139640Y-61620400D01*
X163240720Y-62169040D02*
X163240720Y-57170320D01*
X149740620Y-62169040D02*
X149740620Y-61671200D01*
X148240000Y-55670000D02*
X163240000Y-55670000D01*
X163240720Y-67169040D02*
X148239480Y-67169040D01*
X154541220Y-66620400D02*
X154541220Y-65220860D01*
X151140000Y-62170000D02*
X151140000Y-55670000D01*
X157139640Y-62619900D02*
X156540200Y-62619900D01*
X163240000Y-55670000D02*
X163240000Y-57170000D01*
X152740360Y-57619900D02*
X153339800Y-57619900D01*
X148240000Y-57170000D02*
X148240000Y-55670000D01*
X154541220Y-61620400D02*
X154541220Y-60220860D01*
X148239480Y-62169040D02*
X148239480Y-57170320D01*
X149740620Y-67169040D02*
X149740620Y-66671200D01*
X151140000Y-62170000D02*
X151140000Y-67170000D01*
X152740360Y-62619900D02*
X153339800Y-62619900D01*
X152740360Y-61620400D02*
X152740360Y-57619900D01*
X155338780Y-61620400D02*
X155338780Y-60220860D01*
X149138640Y-60820300D02*
G75*
G03*
X150340060Y-60822840I601980J599440D01*
G01*
X161287458Y-63521605D02*
G75*
G03*
X159440880Y-64270900I-548658J-1297895D01*
G01*
X149138640Y-65820300D02*
G75*
G03*
X150340060Y-65822840I601980J599440D01*
G01*
X150337520Y-60817760D02*
G75*
G03*
X150337520Y-58420000I-1198881J1198880D01*
G01*
X149537420Y-63219340D02*
G75*
G03*
X149539960Y-66020960I1402080J-1399540D01*
G01*
X150340060Y-63420000D02*
G75*
G03*
X149141180Y-63420000I-599440J-599440D01*
G01*
X150340060Y-58420000D02*
G75*
G03*
X149141180Y-58420000I-599440J-599440D01*
G01*
X149138640Y-63420000D02*
G75*
G03*
X149141180Y-65820300I1201420J-1198880D01*
G01*
X161287458Y-58521605D02*
G75*
G03*
X159440880Y-59270900I-548658J-1297895D01*
G01*
X161739580Y-58821320D02*
G75*
G03*
X159740600Y-58818780I-1000760J-998220D01*
G01*
X161739580Y-63821320D02*
G75*
G03*
X159740600Y-63818780I-1000760J-998220D01*
G01*
X149138640Y-58420000D02*
G75*
G03*
X149141180Y-60820300I1201420J-1198880D01*
G01*
X149537420Y-58219340D02*
G75*
G03*
X149539960Y-61020960I1402080J-1399540D01*
G01*
X161739580Y-65820300D02*
G75*
G03*
X161739580Y-63818780I-1000761J1000760D01*
G01*
X150337520Y-65817760D02*
G75*
G03*
X150337520Y-63420000I-1198881J1198880D01*
G01*
X161739580Y-60820300D02*
G75*
G03*
X161739580Y-58818780I-1000761J1000760D01*
G01*
%TO.C,Q1*%
X163576000Y-71628000D02*
X163576000Y-67945000D01*
X167386000Y-66802000D02*
X167386000Y-67945000D01*
X174244000Y-67945000D02*
X174244000Y-71628000D01*
X174244000Y-71628000D02*
X163576000Y-71628000D01*
X174244000Y-67945000D02*
X163576000Y-67945000D01*
X170434000Y-66802000D02*
X170434000Y-67945000D01*
X168910000Y-66802000D02*
X163576000Y-66802000D01*
X174244000Y-66802000D02*
X174244000Y-67945000D01*
X168910000Y-66802000D02*
X174244000Y-66802000D01*
X163576000Y-67945000D02*
X163576000Y-66802000D01*
%TO.C,Q2*%
X178816000Y-66802000D02*
X178816000Y-67945000D01*
X175006000Y-71628000D02*
X175006000Y-67945000D01*
X185674000Y-67945000D02*
X185674000Y-71628000D01*
X185674000Y-67945000D02*
X175006000Y-67945000D01*
X175006000Y-67945000D02*
X175006000Y-66802000D01*
X181864000Y-66802000D02*
X181864000Y-67945000D01*
X185674000Y-71628000D02*
X175006000Y-71628000D01*
X180340000Y-66802000D02*
X185674000Y-66802000D01*
X180340000Y-66802000D02*
X175006000Y-66802000D01*
X185674000Y-66802000D02*
X185674000Y-67945000D01*
%TO.C,Q3*%
X197104000Y-67945000D02*
X197104000Y-71628000D01*
X197104000Y-66802000D02*
X197104000Y-67945000D01*
X193294000Y-66802000D02*
X193294000Y-67945000D01*
X191770000Y-66802000D02*
X186436000Y-66802000D01*
X197104000Y-67945000D02*
X186436000Y-67945000D01*
X186436000Y-71628000D02*
X186436000Y-67945000D01*
X186436000Y-67945000D02*
X186436000Y-66802000D01*
X190246000Y-66802000D02*
X190246000Y-67945000D01*
X191770000Y-66802000D02*
X197104000Y-66802000D01*
X197104000Y-71628000D02*
X186436000Y-71628000D01*
%TO.C,Q4*%
X208534000Y-66802000D02*
X208534000Y-67945000D01*
X201676000Y-66802000D02*
X201676000Y-67945000D01*
X208534000Y-67945000D02*
X197866000Y-67945000D01*
X208534000Y-67945000D02*
X208534000Y-71628000D01*
X197866000Y-67945000D02*
X197866000Y-66802000D01*
X203200000Y-66802000D02*
X197866000Y-66802000D01*
X204724000Y-66802000D02*
X204724000Y-67945000D01*
X203200000Y-66802000D02*
X208534000Y-66802000D01*
X208534000Y-71628000D02*
X197866000Y-71628000D01*
X197866000Y-71628000D02*
X197866000Y-67945000D01*
%TO.C,R4*%
X163908740Y-74279760D02*
X163908740Y-88280240D01*
X163908740Y-86281260D02*
X173911260Y-86281260D01*
X163908740Y-88280240D02*
X173911260Y-88280240D01*
X173911260Y-74279760D02*
X163908740Y-74279760D01*
X163908740Y-76278740D02*
X173911260Y-76278740D01*
X173911260Y-88280240D02*
X173911260Y-74279760D01*
%TO.C,R6*%
X185341260Y-88280240D02*
X185341260Y-74279760D01*
X175338740Y-74279760D02*
X175338740Y-88280240D01*
X175338740Y-86281260D02*
X185341260Y-86281260D01*
X175338740Y-88280240D02*
X185341260Y-88280240D01*
X185341260Y-74279760D02*
X175338740Y-74279760D01*
X175338740Y-76278740D02*
X185341260Y-76278740D01*
%TO.C,R8*%
X196771260Y-88280240D02*
X196771260Y-74279760D01*
X186768740Y-76278740D02*
X196771260Y-76278740D01*
X186768740Y-74279760D02*
X186768740Y-88280240D01*
X186768740Y-88280240D02*
X196771260Y-88280240D01*
X186768740Y-86281260D02*
X196771260Y-86281260D01*
X196771260Y-74279760D02*
X186768740Y-74279760D01*
%TO.C,R10*%
X198198740Y-88280240D02*
X208201260Y-88280240D01*
X198198740Y-76278740D02*
X208201260Y-76278740D01*
X198198740Y-86281260D02*
X208201260Y-86281260D01*
X208201260Y-74279760D02*
X198198740Y-74279760D01*
X208201260Y-88280240D02*
X208201260Y-74279760D01*
X198198740Y-74279760D02*
X198198740Y-88280240D01*
%TO.C,D2*%
X164084000Y-90167460D02*
X164084000Y-92707460D01*
X168910000Y-90167460D02*
X168910000Y-92707460D01*
X164084000Y-91437460D02*
X162814000Y-91437460D01*
X164592000Y-90167460D02*
X164592000Y-92707460D01*
X164465000Y-90167460D02*
X164465000Y-92707460D01*
X165100000Y-90167460D02*
X163830000Y-92707460D01*
X164338000Y-90167460D02*
X164338000Y-92707460D01*
X163830000Y-90167460D02*
X165100000Y-92707460D01*
X165100000Y-90167460D02*
X165100000Y-92707460D01*
X168910000Y-92707460D02*
X163830000Y-92707460D01*
X163830000Y-90167460D02*
X168910000Y-90167460D01*
X164846000Y-90167460D02*
X164846000Y-92707460D01*
X168910000Y-91437460D02*
X169926000Y-91437460D01*
X163830000Y-92707460D02*
X163830000Y-90167460D01*
%TO.C,D3*%
X180340000Y-90167460D02*
X180340000Y-92707460D01*
X179705000Y-90167460D02*
X179705000Y-92707460D01*
X179832000Y-90167460D02*
X179832000Y-92707460D01*
X179070000Y-90167460D02*
X184150000Y-90167460D01*
X179070000Y-90167460D02*
X180340000Y-92707460D01*
X184150000Y-92707460D02*
X179070000Y-92707460D01*
X180086000Y-90167460D02*
X180086000Y-92707460D01*
X179324000Y-90167460D02*
X179324000Y-92707460D01*
X184150000Y-91437460D02*
X185166000Y-91437460D01*
X184150000Y-90167460D02*
X184150000Y-92707460D01*
X179578000Y-90167460D02*
X179578000Y-92707460D01*
X180340000Y-90167460D02*
X179070000Y-92707460D01*
X179070000Y-92707460D02*
X179070000Y-90167460D01*
X179324000Y-91437460D02*
X178054000Y-91437460D01*
%TO.C,P2*%
X155000960Y-77470000D02*
X155498800Y-77470000D01*
X155498800Y-82567780D02*
X155000960Y-82567780D01*
X149699980Y-82770980D02*
X149699980Y-72169020D01*
X155000960Y-74973180D02*
X155498800Y-74973180D01*
X149301200Y-82765900D02*
X155498800Y-82765900D01*
X155498800Y-79966820D02*
X155000960Y-79966820D01*
X155498800Y-72171560D02*
X149301200Y-72171560D01*
X149301200Y-72169020D02*
X149301200Y-82770980D01*
X155000960Y-82770980D02*
X155000960Y-72169020D01*
X155498800Y-72169020D02*
X155498800Y-82770980D01*
X155000960Y-72369680D02*
X155498800Y-72369680D01*
%TO.C,R1*%
X153670000Y-93980000D02*
X153670000Y-95250000D01*
X153670000Y-88900000D02*
X153670000Y-87630000D01*
X152400000Y-88900000D02*
X154940000Y-88900000D01*
X152400000Y-93980000D02*
X152400000Y-88900000D01*
X154940000Y-88900000D02*
X154940000Y-93980000D01*
X154940000Y-93980000D02*
X152400000Y-93980000D01*
%TO.C,R2*%
X179070000Y-97790000D02*
X179070000Y-95250000D01*
X184150000Y-97790000D02*
X179070000Y-97790000D01*
X179070000Y-96520000D02*
X177800000Y-96520000D01*
X179070000Y-95250000D02*
X184150000Y-95250000D01*
X184150000Y-95250000D02*
X184150000Y-97790000D01*
X184150000Y-96520000D02*
X185420000Y-96520000D01*
%TO.C,R3*%
X172720000Y-58420000D02*
X172720000Y-60960000D01*
X167640000Y-59690000D02*
X166370000Y-59690000D01*
X167640000Y-58420000D02*
X172720000Y-58420000D01*
X172720000Y-59690000D02*
X173990000Y-59690000D01*
X167640000Y-60960000D02*
X167640000Y-58420000D01*
X172720000Y-60960000D02*
X167640000Y-60960000D01*
%TO.C,R5*%
X182880000Y-58420000D02*
X187960000Y-58420000D01*
X187960000Y-60960000D02*
X182880000Y-60960000D01*
X182880000Y-59690000D02*
X181610000Y-59690000D01*
X182880000Y-60960000D02*
X182880000Y-58420000D01*
X187960000Y-59690000D02*
X189230000Y-59690000D01*
X187960000Y-58420000D02*
X187960000Y-60960000D01*
%TO.C,R7*%
X207010000Y-60960000D02*
X201930000Y-60960000D01*
X201930000Y-59690000D02*
X200660000Y-59690000D01*
X207010000Y-58420000D02*
X207010000Y-60960000D01*
X207010000Y-59690000D02*
X208280000Y-59690000D01*
X201930000Y-58420000D02*
X207010000Y-58420000D01*
X201930000Y-60960000D02*
X201930000Y-58420000D01*
%TO.C,R9*%
X191770000Y-64770000D02*
X191770000Y-62230000D01*
X191770000Y-63500000D02*
X190500000Y-63500000D01*
X196850000Y-63500000D02*
X198120000Y-63500000D01*
X196850000Y-64770000D02*
X191770000Y-64770000D01*
X191770000Y-62230000D02*
X196850000Y-62230000D01*
X196850000Y-62230000D02*
X196850000Y-64770000D01*
%TO.C,R11*%
X156210000Y-83820000D02*
X158750000Y-83820000D01*
X158750000Y-83820000D02*
X158750000Y-88900000D01*
X158750000Y-88900000D02*
X156210000Y-88900000D01*
X157480000Y-88900000D02*
X157480000Y-90170000D01*
X156210000Y-88900000D02*
X156210000Y-83820000D01*
X157480000Y-83820000D02*
X157480000Y-82550000D01*
%TO.C,R12*%
X196850000Y-95250000D02*
X201930000Y-95250000D01*
X201930000Y-95250000D02*
X201930000Y-97790000D01*
X196850000Y-96520000D02*
X195580000Y-96520000D01*
X196850000Y-97790000D02*
X196850000Y-95250000D01*
X201930000Y-96520000D02*
X203200000Y-96520000D01*
X201930000Y-97790000D02*
X196850000Y-97790000D01*
%TO.C,R13*%
X162560000Y-83820000D02*
X160020000Y-83820000D01*
X161290000Y-78740000D02*
X161290000Y-77470000D01*
X162560000Y-78740000D02*
X162560000Y-83820000D01*
X160020000Y-83820000D02*
X160020000Y-78740000D01*
X161290000Y-83820000D02*
X161290000Y-85090000D01*
X160020000Y-78740000D02*
X162560000Y-78740000D01*
%TO.C,R14*%
X196850000Y-90170000D02*
X201930000Y-90170000D01*
X196850000Y-91440000D02*
X195580000Y-91440000D01*
X196850000Y-92710000D02*
X196850000Y-90170000D01*
X201930000Y-92710000D02*
X196850000Y-92710000D01*
X201930000Y-90170000D02*
X201930000Y-92710000D01*
X201930000Y-91440000D02*
X203200000Y-91440000D01*
%TD*%
D11*
%TO.C,D1*%
X171450000Y-96520000D03*
D12*
X161290000Y-96520000D03*
%TD*%
D13*
%TO.C,P1*%
X159941260Y-60919360D03*
X154940000Y-58420000D03*
X159941260Y-65919360D03*
X154940000Y-63420000D03*
%TD*%
D14*
%TO.C,Q1*%
X168910000Y-69850000D03*
X166370000Y-69850000D03*
X171450000Y-69850000D03*
%TD*%
%TO.C,Q2*%
X180340000Y-69850000D03*
X177800000Y-69850000D03*
X182880000Y-69850000D03*
%TD*%
%TO.C,Q3*%
X191770000Y-69850000D03*
X189230000Y-69850000D03*
X194310000Y-69850000D03*
%TD*%
%TO.C,Q4*%
X203200000Y-69850000D03*
X200660000Y-69850000D03*
X205740000Y-69850000D03*
%TD*%
D15*
%TO.C,R4*%
X168910000Y-84279740D03*
X168910000Y-78280260D03*
%TD*%
%TO.C,R6*%
X180340000Y-84279740D03*
X180340000Y-78280260D03*
%TD*%
%TO.C,R8*%
X191770000Y-84279740D03*
X191770000Y-78280260D03*
%TD*%
%TO.C,R10*%
X203200000Y-84279740D03*
X203200000Y-78280260D03*
%TD*%
D16*
%TO.C,SHIELD1*%
X214630000Y-96520000D03*
X163830000Y-53340000D03*
X214630000Y-68580000D03*
X162560000Y-101600000D03*
D17*
X212090000Y-53340000D03*
X209550000Y-53340000D03*
X207010000Y-53340000D03*
X204470000Y-53340000D03*
X184150000Y-101600000D03*
X201930000Y-53340000D03*
X199390000Y-53340000D03*
X186690000Y-101600000D03*
X196850000Y-53340000D03*
X194310000Y-53340000D03*
X190246000Y-53340000D03*
X187706000Y-53340000D03*
X185166000Y-53340000D03*
X182626000Y-53340000D03*
X180086000Y-53340000D03*
X177546000Y-53340000D03*
X199390000Y-101600000D03*
X201930000Y-101600000D03*
X204470000Y-101600000D03*
X207010000Y-101600000D03*
X209550000Y-101600000D03*
X212090000Y-101600000D03*
X172466000Y-53340000D03*
X189230000Y-101600000D03*
X191770000Y-101600000D03*
X175006000Y-53340000D03*
X179070000Y-101600000D03*
X176530000Y-101600000D03*
X181610000Y-101600000D03*
X167386000Y-53340000D03*
X169926000Y-53340000D03*
D18*
X212090000Y-73660000D03*
X214630000Y-73660000D03*
X212090000Y-76200000D03*
X214630000Y-76200000D03*
X212090000Y-78740000D03*
X214630000Y-78740000D03*
D17*
X194310000Y-101600000D03*
%TD*%
D12*
%TO.C,D2*%
X161290000Y-91437460D03*
D11*
X171450000Y-91437460D03*
%TD*%
D12*
%TO.C,D3*%
X176530000Y-91437460D03*
D11*
X186690000Y-91437460D03*
%TD*%
D12*
%TO.C,P2*%
X152400000Y-81280000D03*
D19*
X152400000Y-78740000D03*
X152400000Y-76200000D03*
X152400000Y-73660000D03*
%TD*%
D11*
%TO.C,R1*%
X153670000Y-86360000D03*
X153670000Y-96520000D03*
%TD*%
%TO.C,R2*%
X176530000Y-96520000D03*
X186690000Y-96520000D03*
%TD*%
%TO.C,R3*%
X165100000Y-59690000D03*
X175260000Y-59690000D03*
%TD*%
%TO.C,R5*%
X180340000Y-59690000D03*
X190500000Y-59690000D03*
%TD*%
%TO.C,R7*%
X199390000Y-59690000D03*
X209550000Y-59690000D03*
%TD*%
%TO.C,R9*%
X199390000Y-63500000D03*
X189230000Y-63500000D03*
%TD*%
%TO.C,R11*%
X157480000Y-81280000D03*
X157480000Y-91440000D03*
%TD*%
%TO.C,R12*%
X204470000Y-96520000D03*
X194310000Y-96520000D03*
%TD*%
%TO.C,R13*%
X161290000Y-76200000D03*
X161290000Y-86360000D03*
%TD*%
%TO.C,R14*%
X204470000Y-91440000D03*
X194310000Y-91440000D03*
%TD*%
M02*
