M48
; DRILL file {KiCad (6.0.8)} date Sat Oct  8 06:19:38 2022
; FORMAT={-:-/ absolute / metric / decimal}
; #@! TF.CreationDate,2022-10-08T06:19:38+02:00
; #@! TF.GenerationSoftware,Kicad,Pcbnew,(6.0.8)
; #@! TF.FileFunction,Plated,1,2,PTH
FMAT,2
METRIC
; #@! TA.AperFunction,Plated,PTH,ComponentDrill
T1C1.001
; #@! TA.AperFunction,Plated,PTH,ComponentDrill
T2C1.016
; #@! TA.AperFunction,Plated,PTH,ComponentDrill
T3C1.097
; #@! TA.AperFunction,Plated,PTH,ComponentDrill
T4C1.199
; #@! TA.AperFunction,Plated,PTH,ComponentDrill
T5C1.200
; #@! TA.AperFunction,Plated,PTH,ComponentDrill
T6C1.270
%
G90
G05
T1
X153.67Y-86.36
X153.67Y-96.52
X157.48Y-81.28
X157.48Y-91.44
X161.29Y-76.2
X161.29Y-86.36
X161.29Y-91.437
X161.29Y-96.52
X165.1Y-59.69
X166.37Y-69.85
X168.91Y-69.85
X171.45Y-69.85
X175.26Y-59.69
X176.53Y-91.437
X176.53Y-96.52
X177.8Y-69.85
X180.34Y-59.69
X180.34Y-69.85
X182.88Y-69.85
X186.69Y-96.52
X189.23Y-63.5
X189.23Y-69.85
X190.5Y-59.69
X191.77Y-69.85
X194.31Y-69.85
X194.31Y-91.44
X194.31Y-96.52
X199.39Y-59.69
X199.39Y-63.5
X200.66Y-69.85
X203.2Y-69.85
X204.47Y-91.44
X204.47Y-96.52
X205.74Y-69.85
X209.55Y-59.69
T2
X167.386Y-53.34
X169.926Y-53.34
X172.466Y-53.34
X175.006Y-53.34
X176.53Y-101.6
X177.546Y-53.34
X179.07Y-101.6
X180.086Y-53.34
X181.61Y-101.6
X182.626Y-53.34
X184.15Y-101.6
X185.166Y-53.34
X186.69Y-101.6
X187.706Y-53.34
X189.23Y-101.6
X190.246Y-53.34
X191.77Y-101.6
X194.31Y-53.34
X194.31Y-101.6
X196.85Y-53.34
X199.39Y-53.34
X199.39Y-101.6
X201.93Y-53.34
X201.93Y-101.6
X204.47Y-53.34
X204.47Y-101.6
X207.01Y-53.34
X207.01Y-101.6
X209.55Y-53.34
X209.55Y-101.6
X212.09Y-53.34
X212.09Y-73.66
X212.09Y-76.2
X212.09Y-78.74
X212.09Y-101.6
X214.63Y-73.66
X214.63Y-76.2
X214.63Y-78.74
T3
X152.4Y-73.66
X152.4Y-76.2
X152.4Y-78.74
X152.4Y-81.28
T4
X168.91Y-78.781
X168.91Y-83.779
X180.34Y-78.781
X180.34Y-83.779
X191.77Y-78.781
X191.77Y-83.779
X203.2Y-78.781
X203.2Y-83.779
T5
X154.94Y-58.42
X154.94Y-63.42
X159.941Y-60.919
X159.941Y-65.919
T6
X171.45Y-91.437
X171.45Y-96.52
X186.69Y-91.437
T0
M30
